<svg xmlns="http://www.w3.org/2000/svg">
	<!-- Support icon -->
	<symbol id="facebook" viewBox="0 0 6 12">
		<path d="M1.29684 2.324V3.9762H0V5.9965H1.29684V12H3.96084V5.9966H5.7486C5.7486 5.9966 5.916 5.0279 5.99712 3.9687H3.97104V2.5874C3.97104 2.381 4.26144 2.1032 4.5486 2.1032H6V3.70852e-09H4.0266C1.23096 -9.99963e-05 1.29684 2.0222 1.29684 2.324Z" />
	</symbol>
	<symbol id="instagram" viewBox="0 0 12 12">
		<path d="M3.1765 0C1.4167 0 0 1.4167 0 3.1765V8.8235C0 10.5833 1.4167 12 3.1765 12H8.8235C10.5833 12 12 10.5833 12 8.8235V3.1765C12 1.4167 10.5833 0 8.8235 0H3.1765ZM9.5294 1.7647C9.9193 1.7647 10.2353 2.0807 10.2353 2.4706C10.2353 2.8604 9.9193 3.1765 9.5294 3.1765C9.1396 3.1765 8.8235 2.8604 8.8235 2.4706C8.8235 2.0807 9.1396 1.7647 9.5294 1.7647ZM6 2.647C7.8476 2.647 9.3529 4.1524 9.3529 6C9.3529 7.8476 7.8476 9.3529 6 9.3529C4.1524 9.3529 2.6471 7.8476 2.6471 6C2.6471 4.1524 4.1524 2.647 6 2.647ZM6 3.6765C4.7131 3.6765 3.6765 4.7131 3.6765 6C3.6765 7.2869 4.7131 8.3235 6 8.3235C7.2869 8.3235 8.3235 7.2869 8.3235 6C8.3235 4.7131 7.2869 3.6765 6 3.6765Z" />
	</symbol>
	<symbol id="telegram" viewBox="0 0 12 12">
		<path d="M3.28521 6.95302L4.13427 9.07552L4.98333 11.198L7.19406 8.98729L10.9845 12L13.6533 0L0 5.68708L3.28521 6.95302Z" />
	</symbol>
	<symbol id="youtube" viewBox="0 0 10 10">
		<path d="M0 10V0L10 5L0 10Z" />
	</symbol>
	<symbol id="search" viewBox="0 0 18 18">
		<path d="M17.1826 13.3381L15.3081 11.4255C14.9049 11.0436 14.3962 10.7906 13.8476 10.699C13.2989 10.6074 12.7353 10.6813 12.2291 10.9112L11.4141 10.0993C12.3745 8.82081 12.8131 7.22734 12.6416 5.63965C12.4702 4.05195 11.7013 2.58792 10.4899 1.54227C9.27848 0.496617 7.71442 -0.0530085 6.11258 0.0040342C4.51073 0.0610769 2.99005 0.720552 1.85666 1.8497C0.723261 2.97885 0.0613065 4.49384 0.00404937 6.08968C-0.0532078 7.68552 0.498484 9.24372 1.54807 10.4506C2.59765 11.6575 4.06718 12.4235 5.66085 12.5943C7.25452 12.7651 8.85397 12.3282 10.1372 11.3714L10.9432 12.1743C10.6852 12.6792 10.5927 13.252 10.6788 13.812C10.7649 14.3721 11.0253 14.891 11.4232 15.2958L13.343 17.2085C13.8524 17.7153 14.5429 18 15.2628 18C15.9827 18 16.6732 17.7153 17.1826 17.2085C17.4414 16.9564 17.647 16.6554 17.7873 16.3231C17.9277 15.9907 18 15.6338 18 15.2733C18 14.9127 17.9277 14.5558 17.7873 14.2235C17.647 13.8912 17.4414 13.5902 17.1826 13.3381ZM9.50335 9.51286C8.86966 10.1426 8.06285 10.5711 7.18484 10.7442C6.30684 10.9173 5.39702 10.8273 4.57033 10.4856C3.74363 10.1438 3.03715 9.56564 2.54013 8.82408C2.04311 8.08251 1.77784 7.21082 1.77784 6.31914C1.77784 5.42745 2.04311 4.55576 2.54013 3.8142C3.03715 3.07263 3.74363 2.49445 4.57033 2.15269C5.39702 1.81094 6.30684 1.72094 7.18484 1.89407C8.06285 2.0672 8.86966 2.49569 9.50335 3.12541C9.92501 3.54444 10.2596 4.04222 10.4878 4.59025C10.7161 5.13828 10.8336 5.7258 10.8336 6.31914C10.8336 6.91248 10.7161 7.49999 10.4878 8.04802C10.2596 8.59605 9.92501 9.09383 9.50335 9.51286ZM15.9057 15.8913C15.8216 15.9758 15.7214 16.043 15.6111 16.0888C15.5007 16.1346 15.3823 16.1581 15.2628 16.1581C15.1432 16.1581 15.0249 16.1346 14.9145 16.0888C14.8042 16.043 14.704 15.9758 14.6198 15.8913L12.7 13.9787C12.6151 13.8948 12.5478 13.795 12.5018 13.6851C12.4558 13.5751 12.4322 13.4572 12.4322 13.3381C12.4322 13.219 12.4558 13.1011 12.5018 12.9911C12.5478 12.8812 12.6151 12.7814 12.7 12.6976C12.7842 12.613 12.8844 12.5459 12.9947 12.5001C13.1051 12.4543 13.2234 12.4307 13.343 12.4307C13.4625 12.4307 13.5809 12.4543 13.6912 12.5001C13.8016 12.5459 13.9017 12.613 13.9859 12.6976L15.9057 14.6102C15.9906 14.694 16.058 14.7938 16.104 14.9038C16.1499 15.0137 16.1736 15.1316 16.1736 15.2507C16.1736 15.3698 16.1499 15.4877 16.104 15.5977C16.058 15.7076 15.9906 15.8074 15.9057 15.8913Z" />
	</symbol>
	<symbol id="heart" viewBox="-2 -1 24 18">
		<path fill-rule="evenodd" clip-rule="evenodd" d="M5.52488 0C2.27117 0 0 2.88148 0 6.24482C0 10.125 3.00414 13.7011 9.44934 17.8375C9.61716 17.9452 9.808 18 10 18C10.1919 18 10.3828 17.9453 10.5507 17.8375C16.9959 13.7011 20 10.125 20 6.24486C20 2.88333 17.7307 0 14.4751 0C12.7558 0 11.2569 0.816688 10.1456 2.32508C10.069 2.42902 10.0345 2.48099 10 2.48099C9.96549 2.48099 9.93098 2.42901 9.85441 2.32507C8.74306 0.816677 7.24422 0 5.52488 0Z" />
	</symbol>
	<symbol id="bag" viewBox="0 0 16 20">
		<path d="M15 5H12V4C12 2.93913 11.5786 1.92172 10.8284 1.17157C10.0783 0.421427 9.06087 0 8 0C6.93913 0 5.92172 0.421427 5.17157 1.17157C4.42143 1.92172 4 2.93913 4 4V5H1C0.734784 5 0.48043 5.10536 0.292893 5.29289C0.105357 5.48043 0 5.73478 0 6V17C0 17.7956 0.316071 18.5587 0.87868 19.1213C1.44129 19.6839 2.20435 20 3 20H13C13.7956 20 14.5587 19.6839 15.1213 19.1213C15.6839 18.5587 16 17.7956 16 17V6C16 5.73478 15.8946 5.48043 15.7071 5.29289C15.5196 5.10536 15.2652 5 15 5ZM6 4C6 3.46957 6.21071 2.96086 6.58579 2.58579C6.96086 2.21071 7.46957 2 8 2C8.53043 2 9.03914 2.21071 9.41421 2.58579C9.78929 2.96086 10 3.46957 10 4V5H6V4ZM14 17C14 17.2652 13.8946 17.5196 13.7071 17.7071C13.5196 17.8946 13.2652 18 13 18H3C2.73478 18 2.48043 17.8946 2.29289 17.7071C2.10536 17.5196 2 17.2652 2 17V7H4V8C4 8.26522 4.10536 8.51957 4.29289 8.70711C4.48043 8.89464 4.73478 9 5 9C5.26522 9 5.51957 8.89464 5.70711 8.70711C5.89464 8.51957 6 8.26522 6 8V7H10V8C10 8.26522 10.1054 8.51957 10.2929 8.70711C10.4804 8.89464 10.7348 9 11 9C11.2652 9 11.5196 8.89464 11.7071 8.70711C11.8946 8.51957 12 8.26522 12 8V7H14V17Z" />
	</symbol>
	<symbol id="user" viewBox="0 0 18 18">
		<path d="M12.3421 9.63839C13.2288 8.94458 13.876 7.99317 14.1937 6.91651C14.5114 5.83985 14.4837 4.69148 14.1146 3.63117C13.7455 2.57087 13.0532 1.65135 12.1341 1.00054C11.215 0.349732 10.1148 0 8.98659 0C7.85834 0 6.75814 0.349732 5.83906 1.00054C4.91997 1.65135 4.22771 2.57087 3.85858 3.63117C3.48945 4.69148 3.4618 5.83985 3.77948 6.91651C4.09717 7.99317 4.74439 8.94458 5.6311 9.63839C4.1117 10.2438 2.78598 11.2479 1.79525 12.5436C0.80453 13.8394 0.185949 15.3783 0.00545546 16.9961C-0.0076096 17.1143 0.00284753 17.2338 0.0362296 17.3479C0.0696116 17.462 0.125265 17.5684 0.200012 17.6612C0.35097 17.8484 0.570537 17.9683 0.810411 17.9946C1.05028 18.0208 1.29082 17.9512 1.47909 17.8011C1.66736 17.651 1.78796 17.4326 1.81434 17.194C2.01295 15.4357 2.85598 13.8118 4.18238 12.6326C5.50877 11.4533 7.22554 10.8014 9.00467 10.8014C10.7838 10.8014 12.5006 11.4533 13.827 12.6326C15.1534 13.8118 15.9964 15.4357 16.195 17.194C16.2196 17.4151 16.3256 17.6192 16.4927 17.767C16.6597 17.9149 16.8759 17.9959 17.0994 17.9946H17.1989C17.436 17.9674 17.6527 17.8482 17.8018 17.6629C17.9509 17.4776 18.0203 17.2411 17.9948 17.0051C17.8135 15.3827 17.1916 13.8399 16.1958 12.5421C15.2 11.2443 13.8678 10.2406 12.3421 9.63839ZM8.98659 8.99976C8.27106 8.99976 7.5716 8.78874 6.97666 8.3934C6.38172 7.99805 5.91802 7.43613 5.6442 6.7787C5.37037 6.12126 5.29873 5.39784 5.43832 4.69991C5.57792 4.00198 5.92248 3.36089 6.42843 2.85771C6.93439 2.35453 7.57901 2.01187 8.28079 1.87304C8.98257 1.73421 9.70999 1.80546 10.371 2.07778C11.0321 2.3501 11.5971 2.81126 11.9947 3.40293C12.3922 3.99461 12.6044 4.69023 12.6044 5.40183C12.6044 6.35606 12.2232 7.27121 11.5447 7.94595C10.8663 8.62069 9.94608 8.99976 8.98659 8.99976Z" />
	</symbol>
	<symbol id="card-decor" viewBox="0 0 20 25">
		<path d="M0 10C0 4.20348 4.47715 0 10 0C15.5228 0 20 4.20348 20 10C20 15.7278 15 18 10 25C5 18 0 15.7278 0 10Z" />
	</symbol>
</svg>
