<svg width="136" height="45" viewBox="0 0 136 45" fill="none" xmlns="http://www.w3.org/2000/svg">
<circle cx="2.07593" cy="1.5" r="1.5" fill="#973B3A"/>
<circle cx="2.07593" cy="15.5" r="1.5" fill="#973B3A"/>
<circle cx="2.07593" cy="29.5" r="1.5" fill="#973B3A"/>
<circle cx="2.07593" cy="43.5" r="1.5" fill="#973B3A"/>
<circle cx="13.0759" cy="1.5" r="1.5" fill="#973B3A"/>
<circle cx="13.0759" cy="15.5" r="1.5" fill="#973B3A"/>
<circle cx="13.0759" cy="29.5" r="1.5" fill="#973B3A"/>
<circle cx="13.0759" cy="43.5" r="1.5" fill="#973B3A"/>
<circle cx="24.0759" cy="1.5" r="1.5" fill="#973B3A"/>
<circle cx="24.0759" cy="15.5" r="1.5" fill="#973B3A"/>
<circle cx="24.0759" cy="29.5" r="1.5" fill="#973B3A"/>
<circle cx="24.0759" cy="43.5" r="1.5" fill="#973B3A"/>
<circle cx="35.0759" cy="1.5" r="1.5" fill="#973B3A"/>
<circle cx="35.0759" cy="15.5" r="1.5" fill="#973B3A"/>
<circle cx="35.0759" cy="29.5" r="1.5" fill="#973B3A"/>
<circle cx="35.0759" cy="43.5" r="1.5" fill="#973B3A"/>
<circle cx="46.0759" cy="1.5" r="1.5" fill="#973B3A"/>
<circle cx="46.0759" cy="15.5" r="1.5" fill="#973B3A"/>
<circle cx="46.0759" cy="29.5" r="1.5" fill="#973B3A"/>
<circle cx="46.0759" cy="43.5" r="1.5" fill="#973B3A"/>
<circle cx="57.0759" cy="1.5" r="1.5" fill="#973B3A"/>
<circle cx="57.0759" cy="15.5" r="1.5" fill="#973B3A"/>
<circle cx="57.0759" cy="29.5" r="1.5" fill="#973B3A"/>
<circle cx="57.0759" cy="43.5" r="1.5" fill="#973B3A"/>
<circle cx="68.0759" cy="1.5" r="1.5" fill="#973B3A"/>
<circle cx="68.0759" cy="15.5" r="1.5" fill="#973B3A"/>
<circle cx="68.0759" cy="29.5" r="1.5" fill="#973B3A"/>
<circle cx="68.0759" cy="43.5" r="1.5" fill="#973B3A"/>
<circle cx="79.0759" cy="1.5" r="1.5" fill="#973B3A"/>
<circle cx="79.0759" cy="15.5" r="1.5" fill="#973B3A"/>
<circle cx="79.0759" cy="29.5" r="1.5" fill="#973B3A"/>
<circle cx="79.0759" cy="43.5" r="1.5" fill="#973B3A"/>
<circle cx="90.0759" cy="1.5" r="1.5" fill="#973B3A"/>
<circle cx="90.0759" cy="15.5" r="1.5" fill="#973B3A"/>
<circle cx="90.0759" cy="29.5" r="1.5" fill="#973B3A"/>
<circle cx="90.0759" cy="43.5" r="1.5" fill="#973B3A"/>
<circle cx="101.076" cy="1.5" r="1.5" fill="#973B3A"/>
<circle cx="101.076" cy="15.5" r="1.5" fill="#973B3A"/>
<circle cx="101.076" cy="29.5" r="1.5" fill="#973B3A"/>
<circle cx="101.076" cy="43.5" r="1.5" fill="#973B3A"/>
<circle cx="112.076" cy="1.5" r="1.5" fill="#973B3A"/>
<circle cx="112.076" cy="15.5" r="1.5" fill="#973B3A"/>
<circle cx="112.076" cy="29.5" r="1.5" fill="#973B3A"/>
<circle cx="112.076" cy="43.5" r="1.5" fill="#973B3A"/>
<circle cx="123.076" cy="1.5" r="1.5" fill="#973B3A"/>
<circle cx="123.076" cy="15.5" r="1.5" fill="#973B3A"/>
<circle cx="123.076" cy="29.5" r="1.5" fill="#973B3A"/>
<circle cx="123.076" cy="43.5" r="1.5" fill="#973B3A"/>
<circle cx="134.076" cy="1.5" r="1.5" fill="#973B3A"/>
<circle cx="134.076" cy="15.5" r="1.5" fill="#973B3A"/>
<circle cx="134.076" cy="29.5" r="1.5" fill="#973B3A"/>
<circle cx="134.076" cy="43.5" r="1.5" fill="#973B3A"/>
</svg>
