<svg width="36" height="40" viewBox="0 0 36 40" fill="none" xmlns="http://www.w3.org/2000/svg">
<path d="M26.5504 8.97288C26.5504 11.9852 25.3691 14.8585 23.2756 17.0218C26.2342 16.3269 29.3643 16.7612 32.0268 18.2674C32.1769 18.3524 32.3241 18.441 32.4695 18.5318C33.9953 17.1774 35.0464 15.3639 35.4378 13.3453L35.8774 11.0787C36.0247 10.3193 35.574 9.55437 34.8291 9.29965L32.6061 8.53938C30.6264 7.86224 28.4979 7.84747 26.538 8.46499C26.5456 8.63384 26.5504 8.80309 26.5504 8.97288Z" fill="#656A25"/>
<path d="M12.7471 17.022C10.6536 14.8588 9.47237 11.9855 9.47237 8.97306C9.47237 8.80358 9.47716 8.63464 9.48457 8.4661C8.53858 8.16801 7.55367 8.01611 6.56486 8.01611C5.50491 8.01611 4.44082 8.18926 3.4166 8.53955L1.1936 9.29982C0.448642 9.55455 -0.00198632 10.3194 0.145299 11.0789L0.584843 13.3454C0.976302 15.364 2.0274 17.1776 3.55312 18.5319C3.69865 18.4412 3.84578 18.3524 3.99585 18.2676C6.65832 16.7614 9.78831 16.3271 12.7471 17.022Z" fill="#656A25"/>
<path d="M23.4879 32.7598C20.8255 31.2536 18.8765 28.8146 18.0113 25.9565C17.1461 28.8146 15.1972 31.2536 12.5347 32.7598C12.3847 32.8446 12.2326 32.9249 12.0797 33.0029C12.5138 34.9749 13.5912 36.7738 15.1796 38.1153L16.963 39.6216C17.5606 40.1263 18.4619 40.1263 19.0595 39.6216L20.843 38.1153C22.4314 36.7737 23.5087 34.9749 23.9429 33.0029C23.79 32.9249 23.638 32.8446 23.4879 32.7598Z" fill="#656A25"/>
<path d="M11.8646 8.97293C11.8646 11.6983 13.0728 14.2818 15.1796 16.0611L15.5203 16.3489C15.9126 16.091 16.3488 15.8931 16.8151 15.7665V10.5845C16.8151 9.93721 17.3506 9.41245 18.0112 9.41245C18.6718 9.41245 19.2074 9.93721 19.2074 10.5845V15.7665C19.6736 15.8931 20.1099 16.091 20.5022 16.3489L20.8429 16.0611C22.9496 14.2818 24.1579 11.6983 24.1579 8.97293C24.1579 6.24767 22.9496 3.66415 20.8429 1.88482L19.0596 0.378573C18.7608 0.126191 18.386 0 18.0113 0C17.6366 0 17.2619 0.126191 16.963 0.378573L15.1796 1.88482C13.0728 3.66415 11.8646 6.24767 11.8646 8.97293Z" fill="#973B3A"/>
<path d="M35.4379 26.6545C34.9186 23.9771 33.2395 21.66 30.8307 20.2974C28.4219 18.9348 25.5343 18.6683 22.9085 19.5664L22.4844 19.7114C22.4908 19.8069 22.4952 19.9029 22.4952 19.9998C22.4952 20.3804 22.4454 20.7498 22.3521 21.1021L26.9311 23.6925C27.5033 24.0162 27.6993 24.733 27.3689 25.2935C27.1474 25.6695 26.7453 25.8797 26.332 25.8797C26.129 25.8797 25.9234 25.8291 25.735 25.7225L21.1531 23.1305C20.8143 23.4569 20.4231 23.731 19.9929 23.9396L20.0767 24.3722C20.596 27.0496 22.2753 29.3667 24.684 30.7293C27.0926 32.0919 29.9802 32.3584 32.6061 31.4603L34.8291 30.7C35.5741 30.4453 36.0247 29.6804 35.8774 28.9209L35.4379 26.6545Z" fill="#973B3A"/>
<path d="M11.3386 30.7298C13.7473 29.3671 15.4266 27.05 15.9458 24.3726L16.0297 23.9401C15.5995 23.7315 15.2083 23.4574 14.8695 23.131L10.2876 25.723C9.71543 26.0466 8.98394 25.8547 8.65365 25.294C8.32327 24.7335 8.51928 24.0166 9.09144 23.693L13.6704 21.1026C13.5771 20.7502 13.5274 20.3809 13.5274 20.0003C13.5274 19.9034 13.5318 19.8073 13.5382 19.7119L13.1141 19.5669C10.4882 18.6688 7.60064 18.9353 5.19184 20.2979C2.78312 21.6605 1.10389 23.9777 0.584683 26.655L0.145139 28.9215C-0.00222598 29.681 0.448482 30.4459 1.19344 30.7006L3.41644 31.4609C6.04238 32.359 8.92996 32.0924 11.3386 30.7298Z" fill="#973B3A"/>
<path d="M18.0113 22.0496C19.1665 22.0496 20.1029 21.132 20.1029 20.0001C20.1029 18.8683 19.1665 17.9507 18.0113 17.9507C16.8562 17.9507 15.9197 18.8683 15.9197 20.0001C15.9197 21.132 16.8562 22.0496 18.0113 22.0496Z" fill="#656A25"/>
</svg>
