<svg xmlns="http://www.w3.org/2000/svg">
	<!-- Support icon -->
	<symbol id="facebook" viewBox="0 0 6 12">
		<path d="M1.29684 2.324V3.9762H0V5.9965H1.29684V12H3.96084V5.9966H5.7486C5.7486 5.9966 5.916 5.0279 5.99712 3.9687H3.97104V2.5874C3.97104 2.381 4.26144 2.1032 4.5486 2.1032H6V3.70852e-09H4.0266C1.23096 -9.99963e-05 1.29684 2.0222 1.29684 2.324Z" />
	</symbol>
	<symbol id="close" viewBox="0 0 14 14">
		<path d="M0 12.4443L12.4443 0L13.9999 1.55554L1.55554 13.9999L0 12.4443Z" />
		<path d="M12.4445 14L0.000124309 1.55567L1.55567 0.000125354L14 12.4445L12.4445 14Z" />
	</symbol>
	<symbol id="instagram" viewBox="0 0 12 12">
		<path d="M3.1765 0C1.4167 0 0 1.4167 0 3.1765V8.8235C0 10.5833 1.4167 12 3.1765 12H8.8235C10.5833 12 12 10.5833 12 8.8235V3.1765C12 1.4167 10.5833 0 8.8235 0H3.1765ZM9.5294 1.7647C9.9193 1.7647 10.2353 2.0807 10.2353 2.4706C10.2353 2.8604 9.9193 3.1765 9.5294 3.1765C9.1396 3.1765 8.8235 2.8604 8.8235 2.4706C8.8235 2.0807 9.1396 1.7647 9.5294 1.7647ZM6 2.647C7.8476 2.647 9.3529 4.1524 9.3529 6C9.3529 7.8476 7.8476 9.3529 6 9.3529C4.1524 9.3529 2.6471 7.8476 2.6471 6C2.6471 4.1524 4.1524 2.647 6 2.647ZM6 3.6765C4.7131 3.6765 3.6765 4.7131 3.6765 6C3.6765 7.2869 4.7131 8.3235 6 8.3235C7.2869 8.3235 8.3235 7.2869 8.3235 6C8.3235 4.7131 7.2869 3.6765 6 3.6765Z" />
	</symbol>
	<symbol id="telegram" viewBox="0 0 12 12">
		<path d="M3.28521 6.95302L4.13427 9.07552L4.98333 11.198L7.19406 8.98729L10.9845 12L13.6533 0L0 5.68708L3.28521 6.95302Z" />
	</symbol>
	<symbol id="youtube" viewBox="0 0 10 10">
		<path d="M0 10V0L10 5L0 10Z" />
	</symbol>
	<symbol id="tiktok" viewBox="0 0 13 14">
		<path d="M12.4434 3.67198C11.6673 3.67198 10.9513 3.41951 10.3762 2.99359C9.71673 2.50534 9.24289 1.78913 9.07556 0.963636C9.03412 0.759675 9.01181 0.549194 9.00969 0.333496H6.79269L6.79003 9.54068C6.79003 10.4118 6.21234 11.1505 5.41154 11.4102C5.17914 11.4856 4.92814 11.5213 4.66679 11.5073C4.33319 11.4893 4.02057 11.3904 3.74886 11.2308C3.17064 10.8912 2.77861 10.2751 2.76798 9.57041C2.75125 8.46897 3.65802 7.57097 4.77887 7.57097C5.00012 7.57097 5.21261 7.60644 5.41154 7.67086V5.46042C5.20172 5.42991 4.98817 5.414 4.77223 5.414C3.54541 5.414 2.39799 5.91477 1.57781 6.81694C0.957887 7.49872 0.58604 8.36856 0.52867 9.28064C0.453504 10.4788 0.899985 11.6178 1.76586 12.4582C1.89308 12.5816 2.02668 12.6961 2.16639 12.8017C2.90875 13.3627 3.81632 13.6668 4.77223 13.6668C4.98817 13.6668 5.20172 13.6512 5.41154 13.6207C6.30451 13.4908 7.12841 13.0894 7.77861 12.4582C8.57755 11.6828 9.01898 10.6533 9.02377 9.55763L9.01234 4.69179C9.39349 4.98051 9.81022 5.21942 10.2575 5.40487C10.9531 5.69307 11.6907 5.83913 12.4498 5.83887V3.67146C12.4503 3.67198 12.444 3.67198 12.4434 3.67198Z" />
	</symbol>
	<symbol id="search" viewBox="0 0 18 18">
		<path d="M17.1826 13.3381L15.3081 11.4255C14.9049 11.0436 14.3962 10.7906 13.8476 10.699C13.2989 10.6074 12.7353 10.6813 12.2291 10.9112L11.4141 10.0993C12.3745 8.82081 12.8131 7.22734 12.6416 5.63965C12.4702 4.05195 11.7013 2.58792 10.4899 1.54227C9.27848 0.496617 7.71442 -0.0530085 6.11258 0.0040342C4.51073 0.0610769 2.99005 0.720552 1.85666 1.8497C0.723261 2.97885 0.0613065 4.49384 0.00404937 6.08968C-0.0532078 7.68552 0.498484 9.24372 1.54807 10.4506C2.59765 11.6575 4.06718 12.4235 5.66085 12.5943C7.25452 12.7651 8.85397 12.3282 10.1372 11.3714L10.9432 12.1743C10.6852 12.6792 10.5927 13.252 10.6788 13.812C10.7649 14.3721 11.0253 14.891 11.4232 15.2958L13.343 17.2085C13.8524 17.7153 14.5429 18 15.2628 18C15.9827 18 16.6732 17.7153 17.1826 17.2085C17.4414 16.9564 17.647 16.6554 17.7873 16.3231C17.9277 15.9907 18 15.6338 18 15.2733C18 14.9127 17.9277 14.5558 17.7873 14.2235C17.647 13.8912 17.4414 13.5902 17.1826 13.3381ZM9.50335 9.51286C8.86966 10.1426 8.06285 10.5711 7.18484 10.7442C6.30684 10.9173 5.39702 10.8273 4.57033 10.4856C3.74363 10.1438 3.03715 9.56564 2.54013 8.82408C2.04311 8.08251 1.77784 7.21082 1.77784 6.31914C1.77784 5.42745 2.04311 4.55576 2.54013 3.8142C3.03715 3.07263 3.74363 2.49445 4.57033 2.15269C5.39702 1.81094 6.30684 1.72094 7.18484 1.89407C8.06285 2.0672 8.86966 2.49569 9.50335 3.12541C9.92501 3.54444 10.2596 4.04222 10.4878 4.59025C10.7161 5.13828 10.8336 5.7258 10.8336 6.31914C10.8336 6.91248 10.7161 7.49999 10.4878 8.04802C10.2596 8.59605 9.92501 9.09383 9.50335 9.51286ZM15.9057 15.8913C15.8216 15.9758 15.7214 16.043 15.6111 16.0888C15.5007 16.1346 15.3823 16.1581 15.2628 16.1581C15.1432 16.1581 15.0249 16.1346 14.9145 16.0888C14.8042 16.043 14.704 15.9758 14.6198 15.8913L12.7 13.9787C12.6151 13.8948 12.5478 13.795 12.5018 13.6851C12.4558 13.5751 12.4322 13.4572 12.4322 13.3381C12.4322 13.219 12.4558 13.1011 12.5018 12.9911C12.5478 12.8812 12.6151 12.7814 12.7 12.6976C12.7842 12.613 12.8844 12.5459 12.9947 12.5001C13.1051 12.4543 13.2234 12.4307 13.343 12.4307C13.4625 12.4307 13.5809 12.4543 13.6912 12.5001C13.8016 12.5459 13.9017 12.613 13.9859 12.6976L15.9057 14.6102C15.9906 14.694 16.058 14.7938 16.104 14.9038C16.1499 15.0137 16.1736 15.1316 16.1736 15.2507C16.1736 15.3698 16.1499 15.4877 16.104 15.5977C16.058 15.7076 15.9906 15.8074 15.9057 15.8913Z" />
	</symbol>
	<symbol id="heart" viewBox="-2 -1 24 18">
		<path fill-rule="evenodd" clip-rule="evenodd" d="M5.52488 0C2.27117 0 0 2.88148 0 6.24482C0 10.125 3.00414 13.7011 9.44934 17.8375C9.61716 17.9452 9.808 18 10 18C10.1919 18 10.3828 17.9453 10.5507 17.8375C16.9959 13.7011 20 10.125 20 6.24486C20 2.88333 17.7307 0 14.4751 0C12.7558 0 11.2569 0.816688 10.1456 2.32508C10.069 2.42902 10.0345 2.48099 10 2.48099C9.96549 2.48099 9.93098 2.42901 9.85441 2.32507C8.74306 0.816677 7.24422 0 5.52488 0Z" />
	</symbol>
	<symbol id="bag" viewBox="0 0 16 20">
		<path d="M15 5H12V4C12 2.93913 11.5786 1.92172 10.8284 1.17157C10.0783 0.421427 9.06087 0 8 0C6.93913 0 5.92172 0.421427 5.17157 1.17157C4.42143 1.92172 4 2.93913 4 4V5H1C0.734784 5 0.48043 5.10536 0.292893 5.29289C0.105357 5.48043 0 5.73478 0 6V17C0 17.7956 0.316071 18.5587 0.87868 19.1213C1.44129 19.6839 2.20435 20 3 20H13C13.7956 20 14.5587 19.6839 15.1213 19.1213C15.6839 18.5587 16 17.7956 16 17V6C16 5.73478 15.8946 5.48043 15.7071 5.29289C15.5196 5.10536 15.2652 5 15 5ZM6 4C6 3.46957 6.21071 2.96086 6.58579 2.58579C6.96086 2.21071 7.46957 2 8 2C8.53043 2 9.03914 2.21071 9.41421 2.58579C9.78929 2.96086 10 3.46957 10 4V5H6V4ZM14 17C14 17.2652 13.8946 17.5196 13.7071 17.7071C13.5196 17.8946 13.2652 18 13 18H3C2.73478 18 2.48043 17.8946 2.29289 17.7071C2.10536 17.5196 2 17.2652 2 17V7H4V8C4 8.26522 4.10536 8.51957 4.29289 8.70711C4.48043 8.89464 4.73478 9 5 9C5.26522 9 5.51957 8.89464 5.70711 8.70711C5.89464 8.51957 6 8.26522 6 8V7H10V8C10 8.26522 10.1054 8.51957 10.2929 8.70711C10.4804 8.89464 10.7348 9 11 9C11.2652 9 11.5196 8.89464 11.7071 8.70711C11.8946 8.51957 12 8.26522 12 8V7H14V17Z" />
	</symbol>
	<symbol id="user" viewBox="0 0 18 18">
		<path d="M12.3421 9.63839C13.2288 8.94458 13.876 7.99317 14.1937 6.91651C14.5114 5.83985 14.4837 4.69148 14.1146 3.63117C13.7455 2.57087 13.0532 1.65135 12.1341 1.00054C11.215 0.349732 10.1148 0 8.98659 0C7.85834 0 6.75814 0.349732 5.83906 1.00054C4.91997 1.65135 4.22771 2.57087 3.85858 3.63117C3.48945 4.69148 3.4618 5.83985 3.77948 6.91651C4.09717 7.99317 4.74439 8.94458 5.6311 9.63839C4.1117 10.2438 2.78598 11.2479 1.79525 12.5436C0.80453 13.8394 0.185949 15.3783 0.00545546 16.9961C-0.0076096 17.1143 0.00284753 17.2338 0.0362296 17.3479C0.0696116 17.462 0.125265 17.5684 0.200012 17.6612C0.35097 17.8484 0.570537 17.9683 0.810411 17.9946C1.05028 18.0208 1.29082 17.9512 1.47909 17.8011C1.66736 17.651 1.78796 17.4326 1.81434 17.194C2.01295 15.4357 2.85598 13.8118 4.18238 12.6326C5.50877 11.4533 7.22554 10.8014 9.00467 10.8014C10.7838 10.8014 12.5006 11.4533 13.827 12.6326C15.1534 13.8118 15.9964 15.4357 16.195 17.194C16.2196 17.4151 16.3256 17.6192 16.4927 17.767C16.6597 17.9149 16.8759 17.9959 17.0994 17.9946H17.1989C17.436 17.9674 17.6527 17.8482 17.8018 17.6629C17.9509 17.4776 18.0203 17.2411 17.9948 17.0051C17.8135 15.3827 17.1916 13.8399 16.1958 12.5421C15.2 11.2443 13.8678 10.2406 12.3421 9.63839ZM8.98659 8.99976C8.27106 8.99976 7.5716 8.78874 6.97666 8.3934C6.38172 7.99805 5.91802 7.43613 5.6442 6.7787C5.37037 6.12126 5.29873 5.39784 5.43832 4.69991C5.57792 4.00198 5.92248 3.36089 6.42843 2.85771C6.93439 2.35453 7.57901 2.01187 8.28079 1.87304C8.98257 1.73421 9.70999 1.80546 10.371 2.07778C11.0321 2.3501 11.5971 2.81126 11.9947 3.40293C12.3922 3.99461 12.6044 4.69023 12.6044 5.40183C12.6044 6.35606 12.2232 7.27121 11.5447 7.94595C10.8663 8.62069 9.94608 8.99976 8.98659 8.99976Z" />
	</symbol>
	<symbol id="card-decor" viewBox="0 0 20 25">
		<path d="M0 10C0 4.20348 4.47715 0 10 0C15.5228 0 20 4.20348 20 10C20 15.7278 15 18 10 25C5 18 0 15.7278 0 10Z" />
	</symbol>
	<symbol id="submit" viewBox="0 0 22 20">
		<path d="M19.5854 7.31637L5.27016 0.314359C4.70521 0.0392893 4.06729 -0.0586374 3.44337 0.0339303C2.81945 0.126498 2.2399 0.405055 1.78372 0.831623C1.32755 1.25819 1.01696 1.81201 0.8943 2.41757C0.771639 3.02313 0.842876 3.65097 1.0983 4.21548L3.55234 9.58702C3.60802 9.71689 3.6367 9.8563 3.6367 9.99713C3.6367 10.138 3.60802 10.2774 3.55234 10.4073L1.0983 15.7788C0.890422 16.2356 0.802543 16.7361 0.842647 17.2346C0.882752 17.7331 1.04957 18.2139 1.32794 18.6333C1.60631 19.0527 1.9874 19.3974 2.43659 19.6361C2.88578 19.8748 3.38882 19.9999 3.89999 20C4.37876 19.9953 4.85041 19.886 5.28039 19.6799L19.5956 12.6779C20.1034 12.428 20.5302 12.045 20.8284 11.5717C21.1267 11.0983 21.2846 10.5532 21.2846 9.99713C21.2846 9.44108 21.1267 8.89597 20.8284 8.4226C20.5302 7.94924 20.1034 7.56625 19.5956 7.31637H19.5854ZM18.6753 10.8874L4.36012 17.8894C4.17215 17.9777 3.96107 18.0077 3.75519 17.9753C3.54931 17.9429 3.35848 17.8497 3.20827 17.7082C3.05807 17.5667 2.95568 17.3837 2.91483 17.1836C2.87398 16.9836 2.89662 16.7761 2.97973 16.589L5.42354 11.2175C5.45517 11.1458 5.48249 11.0723 5.50534 10.9974H12.5505C12.8217 10.9974 13.0817 10.892 13.2735 10.7044C13.4653 10.5169 13.573 10.2624 13.573 9.99713C13.573 9.73184 13.4653 9.47742 13.2735 9.28983C13.0817 9.10224 12.8217 8.99685 12.5505 8.99685H5.50534C5.48249 8.92199 5.45517 8.84851 5.42354 8.77678L2.97973 3.40524C2.89662 3.21815 2.87398 3.01068 2.91483 2.81064C2.95568 2.61061 3.05807 2.42757 3.20827 2.28607C3.35848 2.14458 3.54931 2.05139 3.75519 2.019C3.96107 1.98661 4.17215 2.01658 4.36012 2.10487L18.6753 9.10688C18.8428 9.19082 18.9834 9.31835 19.0815 9.47543C19.1797 9.63251 19.2316 9.81304 19.2316 9.99713C19.2316 10.1812 19.1797 10.3618 19.0815 10.5188C18.9834 10.6759 18.8428 10.8034 18.6753 10.8874V10.8874Z" />
	</symbol>
	<symbol id="call" viewBox="0 0 21 20">
		<path d="M18.0046 11.0318C17.7788 11.0318 17.5428 10.9614 17.317 10.9111C16.8598 10.8122 16.4105 10.6811 15.9727 10.5185C15.4966 10.3486 14.9733 10.3575 14.5035 10.5433C14.0336 10.7291 13.6505 11.0788 13.4277 11.525L13.2019 11.978C12.2024 11.4326 11.284 10.7553 10.4723 9.96493C9.66645 9.16878 8.97587 8.26792 8.41985 7.28757L8.85086 7.00574C9.30584 6.78724 9.66236 6.41142 9.85181 5.95059C10.0413 5.48976 10.0502 4.9765 9.87706 4.50956C9.71412 4.07919 9.58042 3.63871 9.47684 3.19101C9.42553 2.96957 9.38448 2.73807 9.35369 2.50657C9.22908 1.79759 8.85047 1.15555 8.28606 0.69607C7.72164 0.236588 7.00851 -0.0101396 6.27509 0.000319374H3.19649C2.75423 -0.00375357 2.31627 0.0856863 1.91242 0.26255C1.50857 0.439414 1.14831 0.699549 0.856174 1.02525C0.564036 1.35094 0.346875 1.73456 0.219476 2.14997C0.0920768 2.56539 0.0574301 3.00285 0.117894 3.43257C0.66459 7.6493 2.62801 11.5672 5.69801 14.5674C8.76802 17.5676 12.7696 19.4791 17.0707 20H17.4607C18.2174 20.0011 18.948 19.7288 19.5131 19.235C19.8377 18.9502 20.0971 18.6011 20.274 18.2107C20.4509 17.8203 20.5413 17.3976 20.5393 16.9704V13.9508C20.5267 13.2516 20.2671 12.5784 19.8049 12.0461C19.3426 11.5138 18.7063 11.1553 18.0046 11.0318V11.0318ZM18.5177 17.071C18.5175 17.2139 18.4863 17.3552 18.4261 17.4853C18.3659 17.6155 18.2782 17.7316 18.1688 17.8259C18.0544 17.9235 17.9204 17.9964 17.7754 18.0398C17.6304 18.0831 17.4777 18.096 17.3273 18.0775C13.484 17.5942 9.91424 15.8697 7.18094 13.176C4.44763 10.4824 2.70639 6.97287 2.23187 3.20107C2.21553 3.05363 2.22985 2.90448 2.27394 2.76262C2.31804 2.62076 2.391 2.48914 2.48842 2.37572C2.58458 2.26836 2.70295 2.18231 2.83566 2.1233C2.96837 2.0643 3.11236 2.03368 3.25807 2.0335H6.33667C6.57531 2.02829 6.80833 2.10484 6.99563 2.24998C7.18294 2.39511 7.3128 2.59974 7.36287 2.82866C7.40391 3.10378 7.45522 3.37554 7.5168 3.64394C7.63534 4.17453 7.79311 4.69594 7.98885 5.20406L6.55217 5.8583C6.42933 5.91358 6.31883 5.99212 6.22702 6.0894C6.13522 6.18668 6.0639 6.30079 6.01718 6.42517C5.97046 6.54956 5.94925 6.68177 5.95476 6.81422C5.96028 6.94667 5.99242 7.07675 6.04933 7.19698C7.52624 10.2999 10.0692 12.7941 13.2327 14.2427C13.4826 14.3433 13.7628 14.3433 14.0126 14.2427C14.1406 14.1978 14.2582 14.1284 14.3586 14.0385C14.4591 13.9487 14.5403 13.8402 14.5976 13.7193L15.2338 12.3101C15.7643 12.4962 16.3058 12.6508 16.8552 12.7731C17.1289 12.8335 17.4059 12.8839 17.6864 12.9241C17.9198 12.9732 18.1285 13.1006 18.2764 13.2843C18.4244 13.468 18.5024 13.6966 18.4971 13.9306L18.5177 17.071Z" />
	</symbol>
	<symbol id="social" viewBox="0 0 22 20">
		<path d="M11.199 0C9.21202 0.00368884 7.26904 0.571902 5.60671 1.63543C3.94437 2.69896 2.63442 4.21189 1.83641 5.98996C1.03841 7.76803 0.786793 9.73448 1.11221 11.6498C1.43763 13.5651 2.32604 15.3466 3.66923 16.7773V16.7773C4.62855 17.7934 5.79286 18.6044 7.0888 19.159C8.38473 19.7137 9.78418 20 11.199 20C12.6138 20 14.0132 19.7137 15.3092 19.159C16.6051 18.6044 17.7694 17.7934 18.7287 16.7773V16.7773C20.0719 15.3466 20.9603 13.5651 21.2857 11.6498C21.6112 9.73448 21.3595 7.76803 20.5615 5.98996C19.7635 4.21189 18.4536 2.69896 16.7912 1.63543C15.1289 0.571902 13.1859 0.00368884 11.199 0V0ZM11.199 18.0186C9.07678 18.0155 7.03857 17.2081 5.51325 15.7663C5.97634 14.6647 6.76414 13.7225 7.77653 13.0594C8.78892 12.3963 9.98019 12.0422 11.199 12.0422C12.4178 12.0422 13.609 12.3963 14.6214 13.0594C15.6338 13.7225 16.4216 14.6647 16.8847 15.7663C15.3594 17.2081 13.3212 18.0155 11.199 18.0186ZM9.15006 8.00828C9.15006 7.61231 9.27023 7.22523 9.49537 6.89599C9.7205 6.56675 10.0405 6.31014 10.4149 6.15861C10.7893 6.00707 11.2012 5.96743 11.5987 6.04468C11.9961 6.12193 12.3612 6.31261 12.6478 6.5926C12.9343 6.87259 13.1295 7.22933 13.2085 7.61769C13.2876 8.00606 13.247 8.40861 13.0919 8.77444C12.9368 9.14027 12.6742 9.45295 12.3373 9.67294C12.0003 9.89293 11.6042 10.0103 11.199 10.0103C10.6556 10.0103 10.1344 9.79941 9.75018 9.42395C9.36593 9.04849 9.15006 8.53926 9.15006 8.00828ZM18.278 14.0145C17.3626 12.4847 15.9539 11.2947 14.2723 10.631C14.794 10.053 15.1338 9.34031 15.2512 8.5783C15.3685 7.8163 15.2584 7.03739 14.9339 6.33504C14.6094 5.6327 14.0844 5.03676 13.4219 4.61874C12.7595 4.20071 11.9876 3.97836 11.199 3.97836C10.4104 3.97836 9.63849 4.20071 8.976 4.61874C8.31351 5.03676 7.78853 5.6327 7.46406 6.33504C7.1396 7.03739 7.02943 7.8163 7.14677 8.5783C7.26411 9.34031 7.60399 10.053 8.12561 10.631C6.44406 11.2947 5.03531 12.4847 4.11999 14.0145C3.39052 12.8003 3.00509 11.4183 3.00333 10.0103C3.00333 7.88642 3.8668 5.84948 5.40378 4.34764C6.94076 2.8458 9.02535 2.00207 11.199 2.00207C13.3726 2.00207 15.4572 2.8458 16.9942 4.34764C18.5312 5.84948 19.3946 7.88642 19.3946 10.0103C19.3929 11.4183 19.0074 12.8003 18.278 14.0145V14.0145Z" />
	</symbol>
	<symbol id="keybord" viewBox="0 0 17 20">
		<path d="M14.5683 3C15.4157 3 16.1021 2.32876 16.1021 1.49998C16.102 0.671241 15.4157 0 14.5683 0C13.7209 0 13.0345 0.671241 13.0345 1.50002C13.0345 2.32876 13.7209 3 14.5683 3Z" />
		<path d="M2.29816 6C1.45074 6 0.764404 6.67123 0.764404 7.5C0.764404 8.32877 1.45074 9 2.29816 9C3.14554 9 3.83191 8.32877 3.83191 7.5C3.83191 6.67123 3.14554 6 2.29816 6Z" />
		<path d="M2.29816 0C1.45074 0 0.764404 0.671233 0.764404 1.5C0.764404 2.32873 1.45074 3 2.29816 3C3.14554 3 3.83191 2.32877 3.83191 1.5C3.83187 0.671233 3.14554 0 2.29816 0Z" />
		<path d="M2.29816 11C1.45074 11 0.764404 11.6712 0.764404 12.5C0.764404 13.3287 1.45074 14 2.29816 14C3.14554 14 3.83191 13.3288 3.83191 12.5C3.83187 11.6712 3.14554 11 2.29816 11Z" />
		<path d="M8.43329 17C7.58587 17 6.89954 17.6712 6.89954 18.5C6.89954 19.3287 7.58587 20 8.43329 20C9.2807 20 9.96704 19.3288 9.96704 18.5C9.96701 17.6712 9.28067 17 8.43329 17Z" />
		<path d="M14.5683 6C13.7209 6 13.0345 6.67123 13.0345 7.5C13.0345 8.32877 13.7209 9 14.5683 9C15.4157 9 16.1021 8.32877 16.1021 7.5C16.1021 6.67123 15.4157 6 14.5683 6Z" />
		<path d="M8.43329 11C7.58587 11 6.89954 11.6712 6.89954 12.5C6.89954 13.3287 7.58587 14 8.43329 14C9.2807 14 9.96704 13.3288 9.96704 12.5C9.96701 11.6712 9.28067 11 8.43329 11Z" />
		<path d="M14.5683 11C13.7209 11 13.0345 11.6712 13.0345 12.5C13.0345 13.3287 13.7209 14 14.5683 14C15.4157 14 16.1021 13.3288 16.1021 12.5C16.102 11.6712 15.4157 11 14.5683 11Z" />
		<path d="M8.43329 6C7.58587 6 6.89954 6.67123 6.89954 7.5C6.89954 8.32877 7.58587 9 8.43329 9C9.2807 9 9.96704 8.32877 9.96704 7.5C9.96704 6.67123 9.28067 6 8.43329 6Z" />
		<path d="M8.43329 0C7.58587 0 6.89954 0.671233 6.89954 1.5C6.89954 2.32873 7.58587 3 8.43329 3C9.2807 3 9.96704 2.32877 9.96704 1.5C9.96701 0.671233 9.28067 0 8.43329 0Z" />
	</symbol>
	<symbol id="arrow-left" viewBox="0 0 13 12">
		<path d="M11.5709 5.00009H3.98094L7.28094 1.7128C7.46924 1.52465 7.57503 1.26947 7.57503 1.00339C7.57503 0.737305 7.46924 0.48212 7.28094 0.293972C7.09264 0.105823 6.83724 0.00012207 6.57094 0.00012207C6.30464 0.00012207 6.04924 0.105823 5.86094 0.293972L0.860941 5.28985C0.769901 5.38488 0.698536 5.49693 0.650941 5.61958C0.550923 5.86284 0.550923 6.1357 0.650941 6.37896C0.698536 6.50161 0.769901 6.61366 0.860941 6.70869L5.86094 11.7046C5.9539 11.7982 6.06451 11.8726 6.18636 11.9233C6.30822 11.974 6.43893 12.0001 6.57094 12.0001C6.70295 12.0001 6.83366 11.974 6.95552 11.9233C7.07738 11.8726 7.18798 11.7982 7.28094 11.7046C7.37467 11.6117 7.44906 11.5012 7.49983 11.3794C7.5506 11.2577 7.57674 11.1271 7.57674 10.9952C7.57674 10.8632 7.5506 10.7327 7.49983 10.6109C7.44906 10.4891 7.37467 10.3786 7.28094 10.2857L3.98094 6.99845H11.5709C11.8362 6.99845 12.0905 6.89318 12.278 6.70579C12.4656 6.51841 12.5709 6.26427 12.5709 5.99927C12.5709 5.73427 12.4656 5.48013 12.278 5.29275C12.0905 5.10536 11.8362 5.00009 11.5709 5.00009Z" />
	</symbol>
	<symbol id="arrow-right" viewBox="0 0 13 12">
		<path d="M1.57591 5.00009H9.16591L5.86591 1.7128C5.67761 1.52465 5.57182 1.26947 5.57182 1.00339C5.57182 0.737305 5.67761 0.48212 5.86591 0.293972C6.05421 0.105823 6.30961 0.00012207 6.57591 0.00012207C6.84221 0.00012207 7.09761 0.105823 7.28591 0.293972L12.2859 5.28985C12.3769 5.38488 12.4483 5.49693 12.4959 5.61958C12.5959 5.86284 12.5959 6.1357 12.4959 6.37896C12.4483 6.50161 12.3769 6.61366 12.2859 6.70869L7.28591 11.7046C7.19295 11.7982 7.08235 11.8726 6.96049 11.9233C6.83863 11.974 6.70792 12.0001 6.57591 12.0001C6.4439 12.0001 6.31319 11.974 6.19133 11.9233C6.06947 11.8726 5.95887 11.7982 5.86591 11.7046C5.77218 11.6117 5.69779 11.5012 5.64702 11.3794C5.59625 11.2577 5.57011 11.1271 5.57011 10.9952C5.57011 10.8632 5.59625 10.7327 5.64702 10.6109C5.69779 10.4891 5.77218 10.3786 5.86591 10.2857L9.16591 6.99845H1.57591C1.31069 6.99845 1.05634 6.89318 0.868802 6.70579C0.681266 6.51841 0.57591 6.26427 0.57591 5.99927C0.57591 5.73427 0.681266 5.48013 0.868802 5.29275C1.05634 5.10536 1.31069 5.00009 1.57591 5.00009Z" />
	</symbol>
	<symbol id="arrow-down" viewBox="0 0 12 12">
		<path d="M7.00003 1.00499L7.00003 8.59499L10.2873 5.29499C10.4755 5.10668 10.7307 5.00089 10.9967 5.00089C11.2628 5.00089 11.518 5.10668 11.7062 5.29499C11.8943 5.48329 12 5.73868 12 6.00499C12 6.27129 11.8943 6.52668 11.7062 6.71499L6.71027 11.715C6.61524 11.806 6.50319 11.8774 6.38054 11.925C6.13728 12.025 5.86443 12.025 5.62117 11.925C5.49851 11.8774 5.38646 11.806 5.29144 11.715L0.295555 6.71499C0.201905 6.62202 0.127569 6.51142 0.0768426 6.38956C0.0261157 6.2677 2.5628e-07 6.137 2.6205e-07 6.00499C2.67821e-07 5.87297 0.0261157 5.74227 0.0768426 5.62041C0.127569 5.49855 0.201905 5.38795 0.295555 5.29499C0.388442 5.20126 0.498951 5.12686 0.62071 5.07609C0.742469 5.02533 0.873067 4.99919 1.00497 4.99919C1.13687 4.99919 1.26747 5.02533 1.38923 5.07609C1.51099 5.12686 1.6215 5.20126 1.71438 5.29499L5.00168 8.59499L5.00168 1.00499C5.00168 0.73977 5.10695 0.485415 5.29433 0.297879C5.48171 0.110343 5.73585 0.00498649 6.00085 0.0049865C6.26585 0.00498651 6.52 0.110343 6.70738 0.297879C6.89476 0.485415 7.00003 0.73977 7.00003 1.00499Z" />
	</symbol>
	<symbol id="delivery" viewBox="0 0 21 20">
		<path d="M5.50261 12H7.54764C7.81882 12 8.0789 11.8946 8.27066 11.7071C8.46242 11.5196 8.57015 11.2652 8.57015 11C8.57015 10.7348 8.46242 10.4804 8.27066 10.2929C8.0789 10.1054 7.81882 10 7.54764 10H5.50261C5.23142 10 4.97134 10.1054 4.77959 10.2929C4.58783 10.4804 4.4801 10.7348 4.4801 11C4.4801 11.2652 4.58783 11.5196 4.77959 11.7071C4.97134 11.8946 5.23142 12 5.50261 12ZM11.6377 14H5.50261C5.23142 14 4.97134 14.1054 4.77959 14.2929C4.58783 14.4804 4.4801 14.7348 4.4801 15C4.4801 15.2652 4.58783 15.5196 4.77959 15.7071C4.97134 15.8946 5.23142 16 5.50261 16H11.6377C11.9089 16 12.169 15.8946 12.3607 15.7071C12.5525 15.5196 12.6602 15.2652 12.6602 15C12.6602 14.7348 12.5525 14.4804 12.3607 14.2929C12.169 14.1054 11.9089 14 11.6377 14ZM17.7728 0H3.45758C2.64402 0 1.86378 0.316071 1.28851 0.87868C0.713232 1.44129 0.390045 2.20435 0.390045 3V17C0.390045 17.7956 0.713232 18.5587 1.28851 19.1213C1.86378 19.6839 2.64402 20 3.45758 20H17.7728C18.5863 20 19.3666 19.6839 19.9418 19.1213C20.5171 18.5587 20.8403 17.7956 20.8403 17V3C20.8403 2.20435 20.5171 1.44129 19.9418 0.87868C19.3666 0.316071 18.5863 0 17.7728 0ZM12.6602 2V5.29L11.1162 4.45C10.9608 4.36223 10.7844 4.31603 10.605 4.31603C10.4255 4.31603 10.2491 4.36223 10.0937 4.45L8.57015 5.29V2H12.6602ZM18.7953 17C18.7953 17.2652 18.6876 17.5196 18.4958 17.7071C18.304 17.8946 18.044 18 17.7728 18H3.45758C3.1864 18 2.92632 17.8946 2.73456 17.7071C2.5428 17.5196 2.43507 17.2652 2.43507 17V3C2.43507 2.73478 2.5428 2.48043 2.73456 2.29289C2.92632 2.10536 3.1864 2 3.45758 2H6.52512V7C6.5262 7.17451 6.57396 7.34571 6.66365 7.49658C6.75334 7.64746 6.88184 7.77274 7.03638 7.86C7.19182 7.94777 7.36815 7.99397 7.54764 7.99397C7.72713 7.99397 7.90345 7.94777 8.05889 7.86L10.6152 6.47L13.1817 7.87C13.3345 7.9547 13.5071 7.99947 13.6827 8C13.9539 8 14.214 7.89464 14.4057 7.70711C14.5975 7.51957 14.7052 7.26522 14.7052 7V2H17.7728C18.044 2 18.304 2.10536 18.4958 2.29289C18.6876 2.48043 18.7953 2.73478 18.7953 3V17Z" />
	</symbol>
	<symbol id="image" viewBox="0 0 21 17">
		<path d="M17.7832 2.99122H16.4744L16.1472 1.99415C15.9351 1.40911 15.5416 0.902869 15.0213 0.545578C14.501 0.188286 13.8796 -0.00236993 13.2433 2.22382e-05H8.00801C7.36541 0.0011945 6.73941 0.19912 6.21837 0.565863C5.69733 0.932606 5.30756 1.44965 5.10407 2.04401L4.77687 3.04107H3.46805C2.65449 3.04107 1.87425 3.35622 1.29897 3.91718C0.723699 4.47813 0.400513 5.23896 0.400513 6.03227V14.0088C0.400513 14.8021 0.723699 15.5629 1.29897 16.1239C1.87425 16.6849 2.65449 17 3.46805 17H17.7832C18.5968 17 19.377 16.6849 19.9523 16.1239C20.5276 15.5629 20.8508 14.8021 20.8508 14.0088V6.03227C20.8576 5.63529 20.7832 5.24096 20.6321 4.87227C20.481 4.50359 20.2561 4.16793 19.9706 3.88487C19.6851 3.60181 19.3446 3.37702 18.9691 3.22359C18.5935 3.07016 18.1904 2.99117 17.7832 2.99122ZM18.8057 13.9589C18.8057 14.2234 18.698 14.477 18.5063 14.664C18.3145 14.851 18.0544 14.956 17.7832 14.956H3.46805C3.19686 14.956 2.93678 14.851 2.74503 14.664C2.55327 14.477 2.44554 14.2234 2.44554 13.9589V5.98242C2.44554 5.71798 2.55327 5.46437 2.74503 5.27739C2.93678 5.0904 3.19686 4.98535 3.46805 4.98535H5.51308C5.73605 4.9967 5.95671 4.93657 6.14135 4.81414C6.32598 4.69172 6.46445 4.51372 6.53559 4.30735L7.08775 2.67216C7.15634 2.47412 7.28703 2.30211 7.46135 2.18045C7.63566 2.05878 7.84477 1.99362 8.05914 1.99415H13.2944C13.5088 1.99362 13.7179 2.05878 13.8922 2.18045C14.0665 2.30211 14.1972 2.47412 14.2658 2.67216L14.8179 4.30735C14.8836 4.49753 15.0065 4.66399 15.1707 4.78495C15.3349 4.90592 15.5327 4.97576 15.7382 4.98535H17.7832C18.0544 4.98535 18.3145 5.0904 18.5063 5.27739C18.698 5.46437 18.8057 5.71798 18.8057 5.98242V13.9589ZM10.6256 4.98535C9.81671 4.98535 9.02594 5.21926 8.35333 5.6575C7.68073 6.09573 7.15649 6.71861 6.84693 7.44737C6.53736 8.17614 6.45637 8.97804 6.61418 9.75169C6.772 10.5253 7.16154 11.236 7.73354 11.7937C8.30554 12.3515 9.03432 12.7314 9.82771 12.8852C10.6211 13.0391 11.4435 12.9602 12.1908 12.6583C12.9382 12.3564 13.577 11.8452 14.0264 11.1894C14.4758 10.5335 14.7157 9.76242 14.7157 8.97362C14.7157 7.91586 14.2848 6.90143 13.5177 6.15349C12.7507 5.40554 11.7104 4.98535 10.6256 4.98535ZM10.6256 10.9677C10.2212 10.9677 9.82579 10.8508 9.48949 10.6317C9.15319 10.4126 8.89107 10.1011 8.73629 9.73674C8.5815 9.37236 8.541 8.97141 8.61991 8.58458C8.69882 8.19776 8.89359 7.84244 9.17959 7.56355C9.46559 7.28467 9.82998 7.09475 10.2267 7.0178C10.6234 6.94086 11.0346 6.98035 11.4082 7.13128C11.7819 7.28221 12.1013 7.5378 12.326 7.86574C12.5507 8.19367 12.6707 8.57922 12.6707 8.97362C12.6707 9.50249 12.4552 10.0097 12.0717 10.3837C11.6882 10.7577 11.168 10.9677 10.6256 10.9677Z" />
	</symbol>
	<symbol id="quality" viewBox="0 0 21 20">
		<path d="M20.1298 8.08004C19.8425 7.74269 19.4829 7.47113 19.0766 7.28452C18.6702 7.0979 18.2269 7.0008 17.778 7.00004H13.1153L13.6879 5.57004C13.9261 4.94393 14.0054 4.27065 13.9191 3.60797C13.8327 2.94528 13.5833 2.31297 13.1922 1.76527C12.8011 1.21758 12.28 0.770841 11.6735 0.463388C11.0671 0.155934 10.3934 -0.00305943 9.71036 4.45912e-05C9.51367 0.000445953 9.32127 0.0563198 9.15623 0.160967C8.99119 0.265615 8.86051 0.414594 8.77987 0.590044L5.86571 7.00004H3.4628C2.64924 7.00004 1.869 7.31611 1.29373 7.87872C0.71845 8.44133 0.395264 9.2044 0.395264 10V17C0.395264 17.7957 0.71845 18.5588 1.29373 19.1214C1.869 19.684 2.64924 20 3.4628 20H16.4794C17.197 19.9998 17.8918 19.7535 18.4429 19.3041C18.9941 18.8546 19.3666 18.2304 19.4958 17.54L20.7944 10.54C20.8747 10.1074 20.8568 9.66283 20.742 9.23772C20.6271 8.81262 20.4181 8.4174 20.1298 8.08004ZM5.50783 18H3.4628C3.19162 18 2.93154 17.8947 2.73978 17.7072C2.54802 17.5196 2.44029 17.2653 2.44029 17V10C2.44029 9.73483 2.54802 9.48047 2.73978 9.29294C2.93154 9.1054 3.19162 9.00004 3.4628 9.00004H5.50783V18ZM18.8005 10.18L17.5019 17.18C17.4584 17.413 17.3317 17.6233 17.1444 17.7734C16.9572 17.9236 16.7215 18.0039 16.4794 18H7.55286V8.21004L10.3341 2.09004C10.6204 2.17167 10.8863 2.31045 11.1149 2.49763C11.3436 2.6848 11.5302 2.91631 11.6627 3.17754C11.7953 3.43876 11.8711 3.72404 11.8853 4.01535C11.8995 4.30666 11.8518 4.59768 11.7452 4.87004L11.2032 6.30005C11.0878 6.6023 11.0488 6.92739 11.0896 7.24758C11.1304 7.56776 11.2499 7.87353 11.4377 8.13878C11.6256 8.40404 11.8763 8.62091 12.1684 8.77088C12.4605 8.92086 12.7854 8.99948 13.1153 9.00004H17.778C17.9282 8.99981 18.0766 9.03194 18.2127 9.09416C18.3488 9.15638 18.4692 9.24716 18.5653 9.36004C18.6638 9.47137 18.736 9.60259 18.7766 9.74434C18.8173 9.88608 18.8254 10.0349 18.8005 10.18Z" />
	</symbol>
	<symbol id="support" viewBox="0 0 21 18">
		<path d="M18.811 10.18V8C18.811 5.87827 17.9492 3.84344 16.4151 2.34315C14.881 0.842855 12.8004 0 10.6309 0C8.46139 0 6.38075 0.842855 4.84669 2.34315C3.31262 3.84344 2.45079 5.87827 2.45079 8V10.18C1.8541 10.3863 1.33727 10.7681 0.971149 11.2729C0.605028 11.7778 0.40754 12.3811 0.405762 13V15C0.405762 15.7956 0.728948 16.5587 1.30422 17.1213C1.8795 17.6839 2.65974 18 3.4733 18H6.54084C6.81203 18 7.07211 17.8946 7.26387 17.7071C7.45563 17.5196 7.56335 17.2652 7.56335 17V11C7.56335 10.7348 7.45563 10.4804 7.26387 10.2929C7.07211 10.1054 6.81203 10 6.54084 10H4.49581V8C4.49581 6.4087 5.14219 4.88258 6.29274 3.75736C7.44329 2.63214 9.00377 2 10.6309 2C12.258 2 13.8185 2.63214 14.969 3.75736C16.1196 4.88258 16.766 6.4087 16.766 8V10H14.7209C14.4498 10 14.1897 10.1054 13.9979 10.2929C13.8062 10.4804 13.6984 10.7348 13.6984 11V17C13.6984 17.2652 13.8062 17.5196 13.9979 17.7071C14.1897 17.8946 14.4498 18 14.7209 18H17.7885C18.602 18 19.3823 17.6839 19.9576 17.1213C20.5328 16.5587 20.856 15.7956 20.856 15V13C20.8542 12.3811 20.6568 11.7778 20.2906 11.2729C19.9245 10.7681 19.4077 10.3863 18.811 10.18ZM5.51833 12V16H3.4733C3.20211 16 2.94203 15.8946 2.75028 15.7071C2.55852 15.5196 2.45079 15.2652 2.45079 15V13C2.45079 12.7348 2.55852 12.4804 2.75028 12.2929C2.94203 12.1054 3.20211 12 3.4733 12H5.51833ZM18.811 15C18.811 15.2652 18.7033 15.5196 18.5115 15.7071C18.3198 15.8946 18.0597 16 17.7885 16H15.7435V12H17.7885C18.0597 12 18.3198 12.1054 18.5115 12.2929C18.7033 12.4804 18.811 12.7348 18.811 13V15Z" />
	</symbol>
	<symbol id="flower-colors" viewBox="0 0 20 20">
		<path d="M17.6559 4.51763C16.6387 3.9777 15.4525 3.86188 14.3517 4.19501C14.2981 3.06432 13.8156 1.99784 13.0043 1.21678C12.193 0.435716 11.1152 0 9.99433 0C8.87348 0 7.79563 0.435716 6.98434 1.21678C6.17305 1.99784 5.69057 3.06432 5.63697 4.19501C4.53918 3.86112 3.35634 3.96578 2.33276 4.48738C1.57898 4.88751 0.957633 5.5017 0.545352 6.25421C0.133072 7.00672 -0.0521149 7.86464 0.0126288 8.72218C0.0773724 9.57971 0.389215 10.3994 0.909701 11.08C1.43019 11.7607 2.13655 12.2727 2.94169 12.5527C2.42778 13.2913 2.14918 14.1705 2.14309 15.0732C2.14753 15.3266 2.17089 15.5794 2.21297 15.8293C2.38108 16.8531 2.90406 17.7833 3.68853 18.4537C4.47299 19.124 5.46785 19.491 6.49546 19.489C6.70817 19.5037 6.92163 19.5037 7.13434 19.489C8.27538 19.3074 9.30042 18.6812 9.98934 17.7448C10.6854 18.6661 11.7095 19.2772 12.8443 19.4486C13.057 19.4634 13.2705 19.4634 13.4832 19.4486C14.28 19.4477 15.0612 19.2259 15.7417 18.8074C16.4222 18.389 16.976 17.7898 17.3425 17.0754C17.7091 16.361 17.8745 15.5586 17.8206 14.7558C17.7667 13.9529 17.4957 13.1805 17.037 12.5225C17.8461 12.2473 18.5571 11.7378 19.0816 11.0575C19.6062 10.3772 19.921 9.55614 19.987 8.69649C20.053 7.83685 19.8671 6.97659 19.4526 6.22281C19.0382 5.46902 18.4133 4.85498 17.6559 4.45714V4.51763ZM8.33224 2.56178C8.7782 2.13043 9.37185 1.88965 9.98934 1.88965C10.6068 1.88965 11.2005 2.13043 11.6464 2.56178C11.9869 2.90615 12.2181 3.34514 12.3106 3.82276C12.403 4.30038 12.3525 4.79499 12.1655 5.24351L11.906 5.83833L11.2471 6.42307C10.8421 6.28265 10.4176 6.20779 9.98934 6.20127C9.43588 6.2018 8.88857 6.31853 8.38216 6.54405L7.82314 5.24351C7.6294 4.79697 7.57435 4.30158 7.66525 3.82278C7.75614 3.34398 7.98872 2.90428 8.33224 2.56178ZM2.24292 9.45766C2.02007 8.96241 1.97122 8.40519 2.10445 7.8781C2.23768 7.35102 2.54501 6.88562 2.97564 6.55886C3.40627 6.23208 3.93442 6.0635 4.47278 6.08098C5.01114 6.09845 5.52748 6.30093 5.93644 6.65495L6.42559 7.08846L6.77497 7.895C6.27489 8.57073 6.00205 9.39035 5.99634 10.234C5.9845 10.3849 5.9845 10.5366 5.99634 10.6876H5.4473L4.60877 10.7683C4.12916 10.8194 3.64553 10.7213 3.22269 10.487C2.79985 10.2528 2.45799 9.89361 2.24292 9.45766ZM8.83137 15.5873C8.71119 16.1255 8.41105 16.6055 7.98148 16.9463C7.55191 17.2871 7.01916 17.4681 6.47295 17.4586C5.92675 17.4491 5.40046 17.2498 4.98273 16.8943C4.56499 16.5388 4.28133 16.0487 4.17952 15.5067C4.16995 15.3657 4.16995 15.2242 4.17952 15.0833C4.18314 14.6735 4.29284 14.2718 4.49773 13.9181C4.70262 13.5643 4.99556 13.2709 5.34748 13.0669L5.85658 12.704L6.76499 12.6032C7.33754 13.4076 8.18326 13.971 9.14083 14.186L8.83137 15.5873ZM9.98934 12.2503C9.59447 12.2503 9.20847 12.132 8.88014 11.9105C8.55182 11.6889 8.29592 11.374 8.14481 11.0056C7.9937 10.6371 7.95416 10.2317 8.0312 9.84058C8.10824 9.44945 8.29838 9.09017 8.5776 8.80818C8.85682 8.52619 9.21256 8.33416 9.59984 8.25636C9.98712 8.17855 10.3886 8.21848 10.7534 8.3711C11.1182 8.52371 11.43 8.78215 11.6494 9.11373C11.8687 9.44532 11.9858 9.83516 11.9858 10.234C11.9858 10.7687 11.7755 11.2816 11.4011 11.6597C11.0267 12.0379 10.5188 12.2503 9.98934 12.2503ZM15.7992 15.4966C15.6962 16.1117 15.3581 16.6614 14.8577 17.0273C14.3573 17.3931 13.7346 17.5458 13.1238 17.4525C12.6426 17.384 12.1935 17.1686 11.8367 16.8353C11.4799 16.502 11.2324 16.0666 11.1273 15.5873L10.9876 14.9824L11.1972 14.0549C12.1181 13.752 12.8986 13.1214 13.3934 12.2805L13.8925 12.583H13.9823L14.6412 12.9762C15.0692 13.2231 15.4107 13.5983 15.6182 14.0499C15.8256 14.5015 15.8889 15.0071 15.7992 15.4966ZM17.7358 9.44758C17.5394 9.84831 17.2366 10.186 16.861 10.4228C16.4855 10.6596 16.0522 10.7862 15.6095 10.7884H15.3699L14.731 10.6876L13.9823 10.2743C13.9809 9.29405 13.6261 8.34788 12.9841 7.61271L13.4133 7.23969L14.0422 6.65495C14.4524 6.28671 14.9765 6.07391 15.5249 6.053C16.0733 6.03209 16.6118 6.20436 17.0483 6.54032C17.4847 6.87628 17.792 7.35503 17.9174 7.8946C18.0428 8.43416 17.9786 9.00097 17.7358 9.49799V9.44758Z" />
	</symbol>
	<symbol id="flower" viewBox="0 0 36 40">
		<path d="M26.5504 8.97288C26.5504 11.9852 25.3691 14.8585 23.2756 17.0218C26.2342 16.3269 29.3643 16.7612 32.0268 18.2674C32.1769 18.3524 32.3241 18.441 32.4695 18.5318C33.9953 17.1774 35.0464 15.3639 35.4378 13.3453L35.8774 11.0787C36.0247 10.3193 35.574 9.55437 34.8291 9.29965L32.6061 8.53938C30.6264 7.86224 28.4979 7.84747 26.538 8.46499C26.5456 8.63384 26.5504 8.80309 26.5504 8.97288Z" fill="#656A25" />
		<path d="M12.7471 17.022C10.6536 14.8588 9.47237 11.9855 9.47237 8.97306C9.47237 8.80358 9.47716 8.63464 9.48457 8.4661C8.53858 8.16801 7.55367 8.01611 6.56486 8.01611C5.50491 8.01611 4.44082 8.18926 3.4166 8.53955L1.1936 9.29982C0.448642 9.55455 -0.00198632 10.3194 0.145299 11.0789L0.584843 13.3454C0.976302 15.364 2.0274 17.1776 3.55312 18.5319C3.69865 18.4412 3.84578 18.3524 3.99585 18.2676C6.65832 16.7614 9.78831 16.3271 12.7471 17.022Z" fill="#656A25" />
		<path d="M23.4879 32.7598C20.8255 31.2536 18.8765 28.8146 18.0113 25.9565C17.1461 28.8146 15.1972 31.2536 12.5347 32.7598C12.3847 32.8446 12.2326 32.9249 12.0797 33.0029C12.5138 34.9749 13.5912 36.7738 15.1796 38.1153L16.963 39.6216C17.5606 40.1263 18.4619 40.1263 19.0595 39.6216L20.843 38.1153C22.4314 36.7737 23.5087 34.9749 23.9429 33.0029C23.79 32.9249 23.638 32.8446 23.4879 32.7598Z" fill="#656A25" />
		<path d="M11.8646 8.97293C11.8646 11.6983 13.0728 14.2818 15.1796 16.0611L15.5203 16.3489C15.9126 16.091 16.3488 15.8931 16.8151 15.7665V10.5845C16.8151 9.93721 17.3506 9.41245 18.0112 9.41245C18.6718 9.41245 19.2074 9.93721 19.2074 10.5845V15.7665C19.6736 15.8931 20.1099 16.091 20.5022 16.3489L20.8429 16.0611C22.9496 14.2818 24.1579 11.6983 24.1579 8.97293C24.1579 6.24767 22.9496 3.66415 20.8429 1.88482L19.0596 0.378573C18.7608 0.126191 18.386 0 18.0113 0C17.6366 0 17.2619 0.126191 16.963 0.378573L15.1796 1.88482C13.0728 3.66415 11.8646 6.24767 11.8646 8.97293Z" fill="#973B3A" />
		<path d="M35.4379 26.6545C34.9186 23.9771 33.2395 21.66 30.8307 20.2974C28.4219 18.9348 25.5343 18.6683 22.9085 19.5664L22.4844 19.7114C22.4908 19.8069 22.4952 19.9029 22.4952 19.9998C22.4952 20.3804 22.4454 20.7498 22.3521 21.1021L26.9311 23.6925C27.5033 24.0162 27.6993 24.733 27.3689 25.2935C27.1474 25.6695 26.7453 25.8797 26.332 25.8797C26.129 25.8797 25.9234 25.8291 25.735 25.7225L21.1531 23.1305C20.8143 23.4569 20.4231 23.731 19.9929 23.9396L20.0767 24.3722C20.596 27.0496 22.2753 29.3667 24.684 30.7293C27.0926 32.0919 29.9802 32.3584 32.6061 31.4603L34.8291 30.7C35.5741 30.4453 36.0247 29.6804 35.8774 28.9209L35.4379 26.6545Z" fill="#973B3A" />
		<path d="M11.3386 30.7298C13.7473 29.3671 15.4266 27.05 15.9458 24.3726L16.0297 23.9401C15.5995 23.7315 15.2083 23.4574 14.8695 23.131L10.2876 25.723C9.71543 26.0466 8.98394 25.8547 8.65365 25.294C8.32327 24.7335 8.51928 24.0166 9.09144 23.693L13.6704 21.1026C13.5771 20.7502 13.5274 20.3809 13.5274 20.0003C13.5274 19.9034 13.5318 19.8073 13.5382 19.7119L13.1141 19.5669C10.4882 18.6688 7.60064 18.9353 5.19184 20.2979C2.78312 21.6605 1.10389 23.9777 0.584683 26.655L0.145139 28.9215C-0.00222598 29.681 0.448482 30.4459 1.19344 30.7006L3.41644 31.4609C6.04238 32.359 8.92996 32.0924 11.3386 30.7298Z" fill="#973B3A" />
		<path d="M18.0113 22.0496C19.1665 22.0496 20.1029 21.132 20.1029 20.0001C20.1029 18.8683 19.1665 17.9507 18.0113 17.9507C16.8562 17.9507 15.9197 18.8683 15.9197 20.0001C15.9197 21.132 16.8562 22.0496 18.0113 22.0496Z" fill="#656A25" />
	</symbol>
</svg>
