<svg xmlns="http://www.w3.org/2000/svg">
	<!-- Support icon -->
	<symbol id="facebook" viewBox="0 0 6 12">
		<path d="M1.29684 2.324V3.9762H0V5.9965H1.29684V12H3.96084V5.9966H5.7486C5.7486 5.9966 5.916 5.0279 5.99712 3.9687H3.97104V2.5874C3.97104 2.381 4.26144 2.1032 4.5486 2.1032H6V3.70852e-09H4.0266C1.23096 -9.99963e-05 1.29684 2.0222 1.29684 2.324Z" />
	</symbol>
	<symbol id="instagram" viewBox="0 0 12 12">
		<path d="M3.1765 0C1.4167 0 0 1.4167 0 3.1765V8.8235C0 10.5833 1.4167 12 3.1765 12H8.8235C10.5833 12 12 10.5833 12 8.8235V3.1765C12 1.4167 10.5833 0 8.8235 0H3.1765ZM9.5294 1.7647C9.9193 1.7647 10.2353 2.0807 10.2353 2.4706C10.2353 2.8604 9.9193 3.1765 9.5294 3.1765C9.1396 3.1765 8.8235 2.8604 8.8235 2.4706C8.8235 2.0807 9.1396 1.7647 9.5294 1.7647ZM6 2.647C7.8476 2.647 9.3529 4.1524 9.3529 6C9.3529 7.8476 7.8476 9.3529 6 9.3529C4.1524 9.3529 2.6471 7.8476 2.6471 6C2.6471 4.1524 4.1524 2.647 6 2.647ZM6 3.6765C4.7131 3.6765 3.6765 4.7131 3.6765 6C3.6765 7.2869 4.7131 8.3235 6 8.3235C7.2869 8.3235 8.3235 7.2869 8.3235 6C8.3235 4.7131 7.2869 3.6765 6 3.6765Z" />
	</symbol>
	<symbol id="telegram" viewBox="0 0 12 12">
		<path d="M3.28521 6.95302L4.13427 9.07552L4.98333 11.198L7.19406 8.98729L10.9845 12L13.6533 0L0 5.68708L3.28521 6.95302Z" />
	</symbol>
	<symbol id="youtube" viewBox="0 0 10 10">
		<path d="M0 10V0L10 5L0 10Z" />
	</symbol>
	<symbol id="tiktok" viewBox="0 0 13 14">
		<path d="M12.4434 3.67198C11.6673 3.67198 10.9513 3.41951 10.3762 2.99359C9.71673 2.50534 9.24289 1.78913 9.07556 0.963636C9.03412 0.759675 9.01181 0.549194 9.00969 0.333496H6.79269L6.79003 9.54068C6.79003 10.4118 6.21234 11.1505 5.41154 11.4102C5.17914 11.4856 4.92814 11.5213 4.66679 11.5073C4.33319 11.4893 4.02057 11.3904 3.74886 11.2308C3.17064 10.8912 2.77861 10.2751 2.76798 9.57041C2.75125 8.46897 3.65802 7.57097 4.77887 7.57097C5.00012 7.57097 5.21261 7.60644 5.41154 7.67086V5.46042C5.20172 5.42991 4.98817 5.414 4.77223 5.414C3.54541 5.414 2.39799 5.91477 1.57781 6.81694C0.957887 7.49872 0.58604 8.36856 0.52867 9.28064C0.453504 10.4788 0.899985 11.6178 1.76586 12.4582C1.89308 12.5816 2.02668 12.6961 2.16639 12.8017C2.90875 13.3627 3.81632 13.6668 4.77223 13.6668C4.98817 13.6668 5.20172 13.6512 5.41154 13.6207C6.30451 13.4908 7.12841 13.0894 7.77861 12.4582C8.57755 11.6828 9.01898 10.6533 9.02377 9.55763L9.01234 4.69179C9.39349 4.98051 9.81022 5.21942 10.2575 5.40487C10.9531 5.69307 11.6907 5.83913 12.4498 5.83887V3.67146C12.4503 3.67198 12.444 3.67198 12.4434 3.67198Z"/>
	</symbol>
	<symbol id="search" viewBox="0 0 18 18">
		<path d="M17.1826 13.3381L15.3081 11.4255C14.9049 11.0436 14.3962 10.7906 13.8476 10.699C13.2989 10.6074 12.7353 10.6813 12.2291 10.9112L11.4141 10.0993C12.3745 8.82081 12.8131 7.22734 12.6416 5.63965C12.4702 4.05195 11.7013 2.58792 10.4899 1.54227C9.27848 0.496617 7.71442 -0.0530085 6.11258 0.0040342C4.51073 0.0610769 2.99005 0.720552 1.85666 1.8497C0.723261 2.97885 0.0613065 4.49384 0.00404937 6.08968C-0.0532078 7.68552 0.498484 9.24372 1.54807 10.4506C2.59765 11.6575 4.06718 12.4235 5.66085 12.5943C7.25452 12.7651 8.85397 12.3282 10.1372 11.3714L10.9432 12.1743C10.6852 12.6792 10.5927 13.252 10.6788 13.812C10.7649 14.3721 11.0253 14.891 11.4232 15.2958L13.343 17.2085C13.8524 17.7153 14.5429 18 15.2628 18C15.9827 18 16.6732 17.7153 17.1826 17.2085C17.4414 16.9564 17.647 16.6554 17.7873 16.3231C17.9277 15.9907 18 15.6338 18 15.2733C18 14.9127 17.9277 14.5558 17.7873 14.2235C17.647 13.8912 17.4414 13.5902 17.1826 13.3381ZM9.50335 9.51286C8.86966 10.1426 8.06285 10.5711 7.18484 10.7442C6.30684 10.9173 5.39702 10.8273 4.57033 10.4856C3.74363 10.1438 3.03715 9.56564 2.54013 8.82408C2.04311 8.08251 1.77784 7.21082 1.77784 6.31914C1.77784 5.42745 2.04311 4.55576 2.54013 3.8142C3.03715 3.07263 3.74363 2.49445 4.57033 2.15269C5.39702 1.81094 6.30684 1.72094 7.18484 1.89407C8.06285 2.0672 8.86966 2.49569 9.50335 3.12541C9.92501 3.54444 10.2596 4.04222 10.4878 4.59025C10.7161 5.13828 10.8336 5.7258 10.8336 6.31914C10.8336 6.91248 10.7161 7.49999 10.4878 8.04802C10.2596 8.59605 9.92501 9.09383 9.50335 9.51286ZM15.9057 15.8913C15.8216 15.9758 15.7214 16.043 15.6111 16.0888C15.5007 16.1346 15.3823 16.1581 15.2628 16.1581C15.1432 16.1581 15.0249 16.1346 14.9145 16.0888C14.8042 16.043 14.704 15.9758 14.6198 15.8913L12.7 13.9787C12.6151 13.8948 12.5478 13.795 12.5018 13.6851C12.4558 13.5751 12.4322 13.4572 12.4322 13.3381C12.4322 13.219 12.4558 13.1011 12.5018 12.9911C12.5478 12.8812 12.6151 12.7814 12.7 12.6976C12.7842 12.613 12.8844 12.5459 12.9947 12.5001C13.1051 12.4543 13.2234 12.4307 13.343 12.4307C13.4625 12.4307 13.5809 12.4543 13.6912 12.5001C13.8016 12.5459 13.9017 12.613 13.9859 12.6976L15.9057 14.6102C15.9906 14.694 16.058 14.7938 16.104 14.9038C16.1499 15.0137 16.1736 15.1316 16.1736 15.2507C16.1736 15.3698 16.1499 15.4877 16.104 15.5977C16.058 15.7076 15.9906 15.8074 15.9057 15.8913Z" />
	</symbol>
	<symbol id="heart" viewBox="-2 -1 24 18">
		<path fill-rule="evenodd" clip-rule="evenodd" d="M5.52488 0C2.27117 0 0 2.88148 0 6.24482C0 10.125 3.00414 13.7011 9.44934 17.8375C9.61716 17.9452 9.808 18 10 18C10.1919 18 10.3828 17.9453 10.5507 17.8375C16.9959 13.7011 20 10.125 20 6.24486C20 2.88333 17.7307 0 14.4751 0C12.7558 0 11.2569 0.816688 10.1456 2.32508C10.069 2.42902 10.0345 2.48099 10 2.48099C9.96549 2.48099 9.93098 2.42901 9.85441 2.32507C8.74306 0.816677 7.24422 0 5.52488 0Z" />
	</symbol>
	<symbol id="bag" viewBox="0 0 16 20">
		<path d="M15 5H12V4C12 2.93913 11.5786 1.92172 10.8284 1.17157C10.0783 0.421427 9.06087 0 8 0C6.93913 0 5.92172 0.421427 5.17157 1.17157C4.42143 1.92172 4 2.93913 4 4V5H1C0.734784 5 0.48043 5.10536 0.292893 5.29289C0.105357 5.48043 0 5.73478 0 6V17C0 17.7956 0.316071 18.5587 0.87868 19.1213C1.44129 19.6839 2.20435 20 3 20H13C13.7956 20 14.5587 19.6839 15.1213 19.1213C15.6839 18.5587 16 17.7956 16 17V6C16 5.73478 15.8946 5.48043 15.7071 5.29289C15.5196 5.10536 15.2652 5 15 5ZM6 4C6 3.46957 6.21071 2.96086 6.58579 2.58579C6.96086 2.21071 7.46957 2 8 2C8.53043 2 9.03914 2.21071 9.41421 2.58579C9.78929 2.96086 10 3.46957 10 4V5H6V4ZM14 17C14 17.2652 13.8946 17.5196 13.7071 17.7071C13.5196 17.8946 13.2652 18 13 18H3C2.73478 18 2.48043 17.8946 2.29289 17.7071C2.10536 17.5196 2 17.2652 2 17V7H4V8C4 8.26522 4.10536 8.51957 4.29289 8.70711C4.48043 8.89464 4.73478 9 5 9C5.26522 9 5.51957 8.89464 5.70711 8.70711C5.89464 8.51957 6 8.26522 6 8V7H10V8C10 8.26522 10.1054 8.51957 10.2929 8.70711C10.4804 8.89464 10.7348 9 11 9C11.2652 9 11.5196 8.89464 11.7071 8.70711C11.8946 8.51957 12 8.26522 12 8V7H14V17Z" />
	</symbol>
	<symbol id="user" viewBox="0 0 18 18">
		<path d="M12.3421 9.63839C13.2288 8.94458 13.876 7.99317 14.1937 6.91651C14.5114 5.83985 14.4837 4.69148 14.1146 3.63117C13.7455 2.57087 13.0532 1.65135 12.1341 1.00054C11.215 0.349732 10.1148 0 8.98659 0C7.85834 0 6.75814 0.349732 5.83906 1.00054C4.91997 1.65135 4.22771 2.57087 3.85858 3.63117C3.48945 4.69148 3.4618 5.83985 3.77948 6.91651C4.09717 7.99317 4.74439 8.94458 5.6311 9.63839C4.1117 10.2438 2.78598 11.2479 1.79525 12.5436C0.80453 13.8394 0.185949 15.3783 0.00545546 16.9961C-0.0076096 17.1143 0.00284753 17.2338 0.0362296 17.3479C0.0696116 17.462 0.125265 17.5684 0.200012 17.6612C0.35097 17.8484 0.570537 17.9683 0.810411 17.9946C1.05028 18.0208 1.29082 17.9512 1.47909 17.8011C1.66736 17.651 1.78796 17.4326 1.81434 17.194C2.01295 15.4357 2.85598 13.8118 4.18238 12.6326C5.50877 11.4533 7.22554 10.8014 9.00467 10.8014C10.7838 10.8014 12.5006 11.4533 13.827 12.6326C15.1534 13.8118 15.9964 15.4357 16.195 17.194C16.2196 17.4151 16.3256 17.6192 16.4927 17.767C16.6597 17.9149 16.8759 17.9959 17.0994 17.9946H17.1989C17.436 17.9674 17.6527 17.8482 17.8018 17.6629C17.9509 17.4776 18.0203 17.2411 17.9948 17.0051C17.8135 15.3827 17.1916 13.8399 16.1958 12.5421C15.2 11.2443 13.8678 10.2406 12.3421 9.63839ZM8.98659 8.99976C8.27106 8.99976 7.5716 8.78874 6.97666 8.3934C6.38172 7.99805 5.91802 7.43613 5.6442 6.7787C5.37037 6.12126 5.29873 5.39784 5.43832 4.69991C5.57792 4.00198 5.92248 3.36089 6.42843 2.85771C6.93439 2.35453 7.57901 2.01187 8.28079 1.87304C8.98257 1.73421 9.70999 1.80546 10.371 2.07778C11.0321 2.3501 11.5971 2.81126 11.9947 3.40293C12.3922 3.99461 12.6044 4.69023 12.6044 5.40183C12.6044 6.35606 12.2232 7.27121 11.5447 7.94595C10.8663 8.62069 9.94608 8.99976 8.98659 8.99976Z" />
	</symbol>
	<symbol id="card-decor" viewBox="0 0 20 25">
		<path d="M0 10C0 4.20348 4.47715 0 10 0C15.5228 0 20 4.20348 20 10C20 15.7278 15 18 10 25C5 18 0 15.7278 0 10Z" />
	</symbol>
	<symbol id="submit" viewBox="0 0 22 20">
		<path d="M19.5854 7.31637L5.27016 0.314359C4.70521 0.0392893 4.06729 -0.0586374 3.44337 0.0339303C2.81945 0.126498 2.2399 0.405055 1.78372 0.831623C1.32755 1.25819 1.01696 1.81201 0.8943 2.41757C0.771639 3.02313 0.842876 3.65097 1.0983 4.21548L3.55234 9.58702C3.60802 9.71689 3.6367 9.8563 3.6367 9.99713C3.6367 10.138 3.60802 10.2774 3.55234 10.4073L1.0983 15.7788C0.890422 16.2356 0.802543 16.7361 0.842647 17.2346C0.882752 17.7331 1.04957 18.2139 1.32794 18.6333C1.60631 19.0527 1.9874 19.3974 2.43659 19.6361C2.88578 19.8748 3.38882 19.9999 3.89999 20C4.37876 19.9953 4.85041 19.886 5.28039 19.6799L19.5956 12.6779C20.1034 12.428 20.5302 12.045 20.8284 11.5717C21.1267 11.0983 21.2846 10.5532 21.2846 9.99713C21.2846 9.44108 21.1267 8.89597 20.8284 8.4226C20.5302 7.94924 20.1034 7.56625 19.5956 7.31637H19.5854ZM18.6753 10.8874L4.36012 17.8894C4.17215 17.9777 3.96107 18.0077 3.75519 17.9753C3.54931 17.9429 3.35848 17.8497 3.20827 17.7082C3.05807 17.5667 2.95568 17.3837 2.91483 17.1836C2.87398 16.9836 2.89662 16.7761 2.97973 16.589L5.42354 11.2175C5.45517 11.1458 5.48249 11.0723 5.50534 10.9974H12.5505C12.8217 10.9974 13.0817 10.892 13.2735 10.7044C13.4653 10.5169 13.573 10.2624 13.573 9.99713C13.573 9.73184 13.4653 9.47742 13.2735 9.28983C13.0817 9.10224 12.8217 8.99685 12.5505 8.99685H5.50534C5.48249 8.92199 5.45517 8.84851 5.42354 8.77678L2.97973 3.40524C2.89662 3.21815 2.87398 3.01068 2.91483 2.81064C2.95568 2.61061 3.05807 2.42757 3.20827 2.28607C3.35848 2.14458 3.54931 2.05139 3.75519 2.019C3.96107 1.98661 4.17215 2.01658 4.36012 2.10487L18.6753 9.10688C18.8428 9.19082 18.9834 9.31835 19.0815 9.47543C19.1797 9.63251 19.2316 9.81304 19.2316 9.99713C19.2316 10.1812 19.1797 10.3618 19.0815 10.5188C18.9834 10.6759 18.8428 10.8034 18.6753 10.8874V10.8874Z" />
	</symbol>
	<symbol id="call" viewBox="0 0 21 20">
		<path d="M18.0046 11.0318C17.7788 11.0318 17.5428 10.9614 17.317 10.9111C16.8598 10.8122 16.4105 10.6811 15.9727 10.5185C15.4966 10.3486 14.9733 10.3575 14.5035 10.5433C14.0336 10.7291 13.6505 11.0788 13.4277 11.525L13.2019 11.978C12.2024 11.4326 11.284 10.7553 10.4723 9.96493C9.66645 9.16878 8.97587 8.26792 8.41985 7.28757L8.85086 7.00574C9.30584 6.78724 9.66236 6.41142 9.85181 5.95059C10.0413 5.48976 10.0502 4.9765 9.87706 4.50956C9.71412 4.07919 9.58042 3.63871 9.47684 3.19101C9.42553 2.96957 9.38448 2.73807 9.35369 2.50657C9.22908 1.79759 8.85047 1.15555 8.28606 0.69607C7.72164 0.236588 7.00851 -0.0101396 6.27509 0.000319374H3.19649C2.75423 -0.00375357 2.31627 0.0856863 1.91242 0.26255C1.50857 0.439414 1.14831 0.699549 0.856174 1.02525C0.564036 1.35094 0.346875 1.73456 0.219476 2.14997C0.0920768 2.56539 0.0574301 3.00285 0.117894 3.43257C0.66459 7.6493 2.62801 11.5672 5.69801 14.5674C8.76802 17.5676 12.7696 19.4791 17.0707 20H17.4607C18.2174 20.0011 18.948 19.7288 19.5131 19.235C19.8377 18.9502 20.0971 18.6011 20.274 18.2107C20.4509 17.8203 20.5413 17.3976 20.5393 16.9704V13.9508C20.5267 13.2516 20.2671 12.5784 19.8049 12.0461C19.3426 11.5138 18.7063 11.1553 18.0046 11.0318V11.0318ZM18.5177 17.071C18.5175 17.2139 18.4863 17.3552 18.4261 17.4853C18.3659 17.6155 18.2782 17.7316 18.1688 17.8259C18.0544 17.9235 17.9204 17.9964 17.7754 18.0398C17.6304 18.0831 17.4777 18.096 17.3273 18.0775C13.484 17.5942 9.91424 15.8697 7.18094 13.176C4.44763 10.4824 2.70639 6.97287 2.23187 3.20107C2.21553 3.05363 2.22985 2.90448 2.27394 2.76262C2.31804 2.62076 2.391 2.48914 2.48842 2.37572C2.58458 2.26836 2.70295 2.18231 2.83566 2.1233C2.96837 2.0643 3.11236 2.03368 3.25807 2.0335H6.33667C6.57531 2.02829 6.80833 2.10484 6.99563 2.24998C7.18294 2.39511 7.3128 2.59974 7.36287 2.82866C7.40391 3.10378 7.45522 3.37554 7.5168 3.64394C7.63534 4.17453 7.79311 4.69594 7.98885 5.20406L6.55217 5.8583C6.42933 5.91358 6.31883 5.99212 6.22702 6.0894C6.13522 6.18668 6.0639 6.30079 6.01718 6.42517C5.97046 6.54956 5.94925 6.68177 5.95476 6.81422C5.96028 6.94667 5.99242 7.07675 6.04933 7.19698C7.52624 10.2999 10.0692 12.7941 13.2327 14.2427C13.4826 14.3433 13.7628 14.3433 14.0126 14.2427C14.1406 14.1978 14.2582 14.1284 14.3586 14.0385C14.4591 13.9487 14.5403 13.8402 14.5976 13.7193L15.2338 12.3101C15.7643 12.4962 16.3058 12.6508 16.8552 12.7731C17.1289 12.8335 17.4059 12.8839 17.6864 12.9241C17.9198 12.9732 18.1285 13.1006 18.2764 13.2843C18.4244 13.468 18.5024 13.6966 18.4971 13.9306L18.5177 17.071Z" />
	</symbol>
	<symbol id="social" viewBox="0 0 22 20">
		<path d="M11.199 0C9.21202 0.00368884 7.26904 0.571902 5.60671 1.63543C3.94437 2.69896 2.63442 4.21189 1.83641 5.98996C1.03841 7.76803 0.786793 9.73448 1.11221 11.6498C1.43763 13.5651 2.32604 15.3466 3.66923 16.7773V16.7773C4.62855 17.7934 5.79286 18.6044 7.0888 19.159C8.38473 19.7137 9.78418 20 11.199 20C12.6138 20 14.0132 19.7137 15.3092 19.159C16.6051 18.6044 17.7694 17.7934 18.7287 16.7773V16.7773C20.0719 15.3466 20.9603 13.5651 21.2857 11.6498C21.6112 9.73448 21.3595 7.76803 20.5615 5.98996C19.7635 4.21189 18.4536 2.69896 16.7912 1.63543C15.1289 0.571902 13.1859 0.00368884 11.199 0V0ZM11.199 18.0186C9.07678 18.0155 7.03857 17.2081 5.51325 15.7663C5.97634 14.6647 6.76414 13.7225 7.77653 13.0594C8.78892 12.3963 9.98019 12.0422 11.199 12.0422C12.4178 12.0422 13.609 12.3963 14.6214 13.0594C15.6338 13.7225 16.4216 14.6647 16.8847 15.7663C15.3594 17.2081 13.3212 18.0155 11.199 18.0186ZM9.15006 8.00828C9.15006 7.61231 9.27023 7.22523 9.49537 6.89599C9.7205 6.56675 10.0405 6.31014 10.4149 6.15861C10.7893 6.00707 11.2012 5.96743 11.5987 6.04468C11.9961 6.12193 12.3612 6.31261 12.6478 6.5926C12.9343 6.87259 13.1295 7.22933 13.2085 7.61769C13.2876 8.00606 13.247 8.40861 13.0919 8.77444C12.9368 9.14027 12.6742 9.45295 12.3373 9.67294C12.0003 9.89293 11.6042 10.0103 11.199 10.0103C10.6556 10.0103 10.1344 9.79941 9.75018 9.42395C9.36593 9.04849 9.15006 8.53926 9.15006 8.00828ZM18.278 14.0145C17.3626 12.4847 15.9539 11.2947 14.2723 10.631C14.794 10.053 15.1338 9.34031 15.2512 8.5783C15.3685 7.8163 15.2584 7.03739 14.9339 6.33504C14.6094 5.6327 14.0844 5.03676 13.4219 4.61874C12.7595 4.20071 11.9876 3.97836 11.199 3.97836C10.4104 3.97836 9.63849 4.20071 8.976 4.61874C8.31351 5.03676 7.78853 5.6327 7.46406 6.33504C7.1396 7.03739 7.02943 7.8163 7.14677 8.5783C7.26411 9.34031 7.60399 10.053 8.12561 10.631C6.44406 11.2947 5.03531 12.4847 4.11999 14.0145C3.39052 12.8003 3.00509 11.4183 3.00333 10.0103C3.00333 7.88642 3.8668 5.84948 5.40378 4.34764C6.94076 2.8458 9.02535 2.00207 11.199 2.00207C13.3726 2.00207 15.4572 2.8458 16.9942 4.34764C18.5312 5.84948 19.3946 7.88642 19.3946 10.0103C19.3929 11.4183 19.0074 12.8003 18.278 14.0145V14.0145Z" />
	</symbol>
	<symbol id="keybord" viewBox="0 0 17 20">
		<path d="M14.5683 3C15.4157 3 16.1021 2.32876 16.1021 1.49998C16.102 0.671241 15.4157 0 14.5683 0C13.7209 0 13.0345 0.671241 13.0345 1.50002C13.0345 2.32876 13.7209 3 14.5683 3Z" />
		<path d="M2.29816 6C1.45074 6 0.764404 6.67123 0.764404 7.5C0.764404 8.32877 1.45074 9 2.29816 9C3.14554 9 3.83191 8.32877 3.83191 7.5C3.83191 6.67123 3.14554 6 2.29816 6Z" />
		<path d="M2.29816 0C1.45074 0 0.764404 0.671233 0.764404 1.5C0.764404 2.32873 1.45074 3 2.29816 3C3.14554 3 3.83191 2.32877 3.83191 1.5C3.83187 0.671233 3.14554 0 2.29816 0Z" />
		<path d="M2.29816 11C1.45074 11 0.764404 11.6712 0.764404 12.5C0.764404 13.3287 1.45074 14 2.29816 14C3.14554 14 3.83191 13.3288 3.83191 12.5C3.83187 11.6712 3.14554 11 2.29816 11Z" />
		<path d="M8.43329 17C7.58587 17 6.89954 17.6712 6.89954 18.5C6.89954 19.3287 7.58587 20 8.43329 20C9.2807 20 9.96704 19.3288 9.96704 18.5C9.96701 17.6712 9.28067 17 8.43329 17Z" />
		<path d="M14.5683 6C13.7209 6 13.0345 6.67123 13.0345 7.5C13.0345 8.32877 13.7209 9 14.5683 9C15.4157 9 16.1021 8.32877 16.1021 7.5C16.1021 6.67123 15.4157 6 14.5683 6Z" />
		<path d="M8.43329 11C7.58587 11 6.89954 11.6712 6.89954 12.5C6.89954 13.3287 7.58587 14 8.43329 14C9.2807 14 9.96704 13.3288 9.96704 12.5C9.96701 11.6712 9.28067 11 8.43329 11Z" />
		<path d="M14.5683 11C13.7209 11 13.0345 11.6712 13.0345 12.5C13.0345 13.3287 13.7209 14 14.5683 14C15.4157 14 16.1021 13.3288 16.1021 12.5C16.102 11.6712 15.4157 11 14.5683 11Z" />
		<path d="M8.43329 6C7.58587 6 6.89954 6.67123 6.89954 7.5C6.89954 8.32877 7.58587 9 8.43329 9C9.2807 9 9.96704 8.32877 9.96704 7.5C9.96704 6.67123 9.28067 6 8.43329 6Z" />
		<path d="M8.43329 0C7.58587 0 6.89954 0.671233 6.89954 1.5C6.89954 2.32873 7.58587 3 8.43329 3C9.2807 3 9.96704 2.32877 9.96704 1.5C9.96701 0.671233 9.28067 0 8.43329 0Z" />
	</symbol>
</svg>
