<svg width="20" height="20" viewBox="0 0 20 20" fill="none" xmlns="http://www.w3.org/2000/svg">
<path d="M20 5.82001C20.0048 5.75677 20.0048 5.69325 20 5.63001L18 0.630012C17.9219 0.432368 17.7828 0.264749 17.603 0.151468C17.4232 0.0381872 17.212 -0.0148633 17 1.1991e-05H3C2.79972 -0.000181891 2.604 0.0597667 2.43818 0.172093C2.27237 0.284419 2.1441 0.443947 2.07 0.630012L0.0699999 5.63001C0.0651796 5.69325 0.0651796 5.75677 0.0699999 5.82001C0.0367708 5.87568 0.0131096 5.93652 0 6.00001C0.0111306 6.69125 0.201226 7.36781 0.551745 7.96369C0.902263 8.55957 1.40124 9.05444 2 9.40001V19C2 19.2652 2.10536 19.5196 2.29289 19.7071C2.48043 19.8947 2.73478 20 3 20H17C17.2652 20 17.5196 19.8947 17.7071 19.7071C17.8946 19.5196 18 19.2652 18 19V9.44001C18.6046 9.09099 19.1072 8.58984 19.4581 7.98635C19.809 7.38287 19.9958 6.69807 20 6.00001C20.0094 5.94038 20.0094 5.87965 20 5.82001ZM11 18H9V14H11V18ZM16 18H13V13C13 12.7348 12.8946 12.4804 12.7071 12.2929C12.5196 12.1054 12.2652 12 12 12H8C7.73478 12 7.48043 12.1054 7.29289 12.2929C7.10536 12.4804 7 12.7348 7 13V18H4V10C4.56947 9.9968 5.13169 9.87203 5.64905 9.63404C6.16642 9.39605 6.627 9.05033 7 8.62001C7.37537 9.04564 7.83701 9.38652 8.35425 9.62001C8.87149 9.8535 9.4325 9.97426 10 9.97426C10.5675 9.97426 11.1285 9.8535 11.6458 9.62001C12.163 9.38652 12.6246 9.04564 13 8.62001C13.373 9.05033 13.8336 9.39605 14.3509 9.63404C14.8683 9.87203 15.4305 9.9968 16 10V18ZM16 8.00001C15.4696 8.00001 14.9609 7.7893 14.5858 7.41423C14.2107 7.03915 14 6.53045 14 6.00001C14 5.7348 13.8946 5.48044 13.7071 5.29291C13.5196 5.10537 13.2652 5.00001 13 5.00001C12.7348 5.00001 12.4804 5.10537 12.2929 5.29291C12.1054 5.48044 12 5.7348 12 6.00001C12 6.53045 11.7893 7.03915 11.4142 7.41423C11.0391 7.7893 10.5304 8.00001 10 8.00001C9.46957 8.00001 8.96086 7.7893 8.58579 7.41423C8.21071 7.03915 8 6.53045 8 6.00001C8 5.7348 7.89464 5.48044 7.70711 5.29291C7.51957 5.10537 7.26522 5.00001 7 5.00001C6.73478 5.00001 6.48043 5.10537 6.29289 5.29291C6.10536 5.48044 6 5.7348 6 6.00001C6.00985 6.26266 5.96787 6.52467 5.87646 6.77109C5.78505 7.01751 5.646 7.24351 5.46725 7.43619C5.28849 7.62887 5.07354 7.78446 4.83466 7.89407C4.59578 8.00368 4.33764 8.06516 4.075 8.07501C3.54457 8.0949 3.02796 7.90327 2.63882 7.54226C2.44614 7.36351 2.29055 7.14855 2.18094 6.90967C2.07133 6.67079 2.00985 6.41266 2 6.15001L3.68 2.00001H16.32L18 6.15001C17.9621 6.65403 17.7348 7.125 17.3637 7.46822C16.9927 7.81143 16.5054 8.00144 16 8.00001Z" fill="#973B3A"/>
</svg>
