<svg width="20" height="20" viewBox="0 0 20 20" fill="none" xmlns="http://www.w3.org/2000/svg">
<path d="M17.4386 10.9999C17.2186 10.9999 16.9886 10.9299 16.7686 10.8799C16.3231 10.7817 15.8853 10.6514 15.4586 10.4899C14.9947 10.3211 14.4848 10.3299 14.0269 10.5145C13.5691 10.6991 13.1957 11.0465 12.9786 11.4899L12.7586 11.9399C11.7846 11.398 10.8896 10.7251 10.0986 9.93987C9.31341 9.14888 8.64046 8.25387 8.09864 7.27987L8.51864 6.99987C8.962 6.78278 9.30942 6.4094 9.49403 5.95156C9.67864 5.49372 9.68741 4.98378 9.51864 4.51987C9.35986 4.09229 9.22957 3.65467 9.12864 3.20987C9.07864 2.98987 9.03864 2.75987 9.00864 2.52987C8.8872 1.82549 8.51826 1.18761 7.96826 0.731107C7.41825 0.274605 6.72333 0.0294769 6.00864 0.0398681H3.00864C2.57767 0.0358215 2.15089 0.124682 1.75735 0.300399C1.36381 0.476116 1.01275 0.734564 0.728066 1.05815C0.443387 1.38174 0.231771 1.76286 0.107624 2.17558C-0.0165226 2.5883 -0.0502847 3.02293 0.00863594 3.44987C0.541374 7.63925 2.45466 11.5317 5.44629 14.5125C8.43791 17.4933 12.3373 19.3924 16.5286 19.9099H16.9086C17.6461 19.9109 18.358 19.6404 18.9086 19.1499C19.225 18.8669 19.4777 18.52 19.6501 18.1322C19.8225 17.7443 19.9106 17.3243 19.9086 16.8999V13.8999C19.8964 13.2053 19.6434 12.5364 19.193 12.0075C18.7425 11.4786 18.1225 11.1225 17.4386 10.9999ZM17.9386 16.9999C17.9385 17.1419 17.908 17.2822 17.8494 17.4115C17.7908 17.5408 17.7053 17.6562 17.5986 17.7499C17.4872 17.8469 17.3566 17.9193 17.2153 17.9624C17.074 18.0054 16.9252 18.0182 16.7786 17.9999C13.0335 17.5197 9.55487 15.8064 6.89135 13.1302C4.22783 10.454 2.53105 6.96721 2.06864 3.21987C2.05272 3.07339 2.06667 2.9252 2.10964 2.78426C2.15261 2.64332 2.22371 2.51256 2.31864 2.39987C2.41235 2.2932 2.5277 2.20771 2.65701 2.14909C2.78633 2.09046 2.92665 2.06005 3.06864 2.05987H6.06864C6.30118 2.05469 6.52826 2.13075 6.71078 2.27494C6.8933 2.41913 7.01985 2.62244 7.06864 2.84987C7.10864 3.1232 7.15864 3.3932 7.21864 3.65987C7.33416 4.18701 7.4879 4.70505 7.67864 5.20987L6.27864 5.85987C6.15893 5.91479 6.05126 5.99281 5.96179 6.08946C5.87233 6.18611 5.80284 6.29948 5.75731 6.42306C5.71178 6.54664 5.69111 6.678 5.69648 6.80959C5.70186 6.94118 5.73318 7.07041 5.78864 7.18987C7.22784 10.2726 9.70588 12.7507 12.7886 14.1899C13.0321 14.2899 13.3052 14.2899 13.5486 14.1899C13.6733 14.1453 13.788 14.0763 13.8858 13.9871C13.9837 13.8978 14.0628 13.79 14.1186 13.6699L14.7386 12.2699C15.2556 12.4547 15.7832 12.6084 16.3186 12.7299C16.5853 12.7899 16.8553 12.8399 17.1286 12.8799C17.3561 12.9287 17.5594 13.0552 17.7036 13.2377C17.8478 13.4202 17.9238 13.6473 17.9186 13.8799L17.9386 16.9999Z" fill="#973B3A"/>
</svg>
