<svg width="12" height="12" viewBox="0 0 12 12" fill="none" xmlns="http://www.w3.org/2000/svg">
<path d="M1.0001 4.99997H8.5901L5.2901 1.71268C5.1018 1.52453 4.99601 1.26935 4.99601 1.00326C4.99601 0.737183 5.1018 0.481998 5.2901 0.29385C5.47841 0.105701 5.7338 0 6.0001 0C6.26641 0 6.5218 0.105701 6.7101 0.29385L11.7101 5.28973C11.8011 5.38476 11.8725 5.49681 11.9201 5.61946C12.0201 5.86272 12.0201 6.13557 11.9201 6.37883C11.8725 6.50149 11.8011 6.61354 11.7101 6.70856L6.7101 11.7044C6.61714 11.7981 6.50654 11.8724 6.38468 11.9232C6.26282 11.9739 6.13212 12 6.0001 12C5.86809 12 5.73739 11.9739 5.61553 11.9232C5.49367 11.8724 5.38307 11.7981 5.2901 11.7044C5.19637 11.6116 5.12198 11.501 5.07121 11.3793C5.02044 11.2575 4.99431 11.1269 4.99431 10.995C4.99431 10.8631 5.02044 10.7325 5.07121 10.6108C5.12198 10.489 5.19637 10.3785 5.2901 10.2856L8.5901 6.99832H1.0001C0.734887 6.99832 0.480533 6.89305 0.292996 6.70567C0.10546 6.51829 0.000103951 6.26415 0.000103951 5.99915C0.000103951 5.73415 0.10546 5.48001 0.292996 5.29262C0.480533 5.10524 0.734887 4.99997 1.0001 4.99997Z" fill="#F2EBE5"/>
</svg>
